<svg width="18" height="19" viewBox="0 0 18 19" fill="none" xmlns="http://www.w3.org/2000/svg">
<path d="M8.77348 0.947021C3.92567 0.947021 0 4.88147 0 9.72928C0 14.5771 3.92567 18.5115 8.77348 18.5115C13.6301 18.5115 17.5645 14.5771 17.5645 9.72928C17.5645 4.88147 13.6301 0.947021 8.77348 0.947021ZM8.78226 16.7551C4.9005 16.7551 1.75645 13.611 1.75645 9.72928C1.75645 5.84752 4.9005 2.70347 8.78226 2.70347C12.664 2.70347 15.8081 5.84752 15.8081 9.72928C15.8081 13.611 12.664 16.7551 8.78226 16.7551Z" fill="white"/>
<path d="M9.22115 5.33813H7.90381V10.6075L12.5145 13.3739L13.1732 12.2937L9.22115 9.94882V5.33813Z" fill="white"/>
</svg>
