<svg width="21" height="21" viewBox="0 0 21 21" fill="none" xmlns="http://www.w3.org/2000/svg">
<g clip-path="url(#clip0_5_109)">
<path d="M10.1269 2.03174C12.4054 2.03174 12.6897 2.04012 13.5837 2.08206C14.4768 2.12399 15.0848 2.26404 15.6198 2.47201C16.1733 2.68502 16.6396 2.9735 17.1059 3.43894C17.5323 3.85816 17.8622 4.36526 18.0728 4.92496C18.2799 5.45916 18.4208 6.068 18.4627 6.96113C18.5022 7.85509 18.5131 8.13938 18.5131 10.4179C18.5131 12.6964 18.5047 12.9807 18.4627 13.8747C18.4208 14.7678 18.2799 15.3758 18.0728 15.9108C17.8629 16.4708 17.5328 16.9781 17.1059 17.3969C16.6865 17.8232 16.1794 18.1531 15.6198 18.3638C15.0856 18.5709 14.4768 18.7118 13.5837 18.7538C12.6897 18.7932 12.4054 18.8041 10.1269 18.8041C7.84837 18.8041 7.56408 18.7957 6.67011 18.7538C5.77698 18.7118 5.16899 18.5709 4.63395 18.3638C4.07403 18.1537 3.56683 17.8237 3.14792 17.3969C2.72141 16.9777 2.39143 16.4706 2.181 15.9108C1.97302 15.3766 1.83297 14.7678 1.79104 13.8747C1.75162 12.9807 1.74072 12.6964 1.74072 10.4179C1.74072 8.13938 1.74911 7.85509 1.79104 6.96113C1.83297 6.06716 1.97302 5.46 2.181 4.92496C2.39085 4.36492 2.7209 3.85768 3.14792 3.43894C3.56695 3.01227 4.07411 2.68228 4.63395 2.47201C5.16899 2.26404 5.77614 2.12399 6.67011 2.08206C7.56408 2.04264 7.84837 2.03174 10.1269 2.03174ZM10.1269 6.22482C9.01481 6.22482 7.94829 6.66659 7.16193 7.45295C6.37558 8.2393 5.9338 9.30583 5.9338 10.4179C5.9338 11.53 6.37558 12.5965 7.16193 13.3829C7.94829 14.1692 9.01481 14.611 10.1269 14.611C11.239 14.611 12.3055 14.1692 13.0918 13.3829C13.8782 12.5965 14.32 11.53 14.32 10.4179C14.32 9.30583 13.8782 8.2393 13.0918 7.45295C12.3055 6.66659 11.239 6.22482 10.1269 6.22482ZM15.5779 6.01517C15.5779 5.73715 15.4675 5.47052 15.2709 5.27393C15.0743 5.07734 14.8076 4.9669 14.5296 4.9669C14.2516 4.9669 13.985 5.07734 13.7884 5.27393C13.5918 5.47052 13.4814 5.73715 13.4814 6.01517C13.4814 6.29319 13.5918 6.55982 13.7884 6.75641C13.985 6.95299 14.2516 7.06344 14.5296 7.06344C14.8076 7.06344 15.0743 6.95299 15.2709 6.75641C15.4675 6.55982 15.5779 6.29319 15.5779 6.01517ZM10.1269 7.90205C10.7941 7.90205 11.434 8.16712 11.9059 8.63893C12.3777 9.11074 12.6427 9.75066 12.6427 10.4179C12.6427 11.0851 12.3777 11.7251 11.9059 12.1969C11.434 12.6687 10.7941 12.9338 10.1269 12.9338C9.45964 12.9338 8.81973 12.6687 8.34791 12.1969C7.8761 11.7251 7.61104 11.0851 7.61104 10.4179C7.61104 9.75066 7.8761 9.11074 8.34791 8.63893C8.81973 8.16712 9.45964 7.90205 10.1269 7.90205Z" fill="white"/>
</g>
<defs>
<clipPath id="clip0_5_109">
<rect width="20.1268" height="20.1268" fill="white" transform="translate(0.0634766 0.354492)"/>
</clipPath>
</defs>
</svg>
