<svg xmlns="http://www.w3.org/2000/svg" width="2048" height="2048" viewBox="0 0 2048 2048" version="1.1"><path d="M 757.517 956.050 C 759.820 962.576, 762.806 978.655, 763.173 986.500 L 763.500 993.500 768.960 995.207 C 771.963 996.145, 774.581 996.752, 774.779 996.555 C 775.319 996.015, 773.276 985.658, 770.873 976.755 C 768.814 969.124, 761.744 956.469, 757.674 953.129 C 756.119 951.853, 756.108 952.055, 757.517 956.050 M 1671.170 1012.083 C 1670.525 1014.879, 1667.786 1023.091, 1665.084 1030.333 C 1662.382 1037.575, 1658.308 1049.003, 1656.031 1055.728 L 1651.890 1067.957 1654.347 1072.228 C 1655.698 1074.578, 1657.099 1077.916, 1657.459 1079.646 C 1658.063 1082.552, 1659.727 1084.692, 1662.684 1086.366 C 1663.485 1086.820, 1664.684 1084.364, 1666.393 1078.768 C 1667.782 1074.221, 1671.687 1063.075, 1675.070 1054 C 1684.199 1029.518, 1684.956 1026.520, 1683.451 1020.816 C 1682.027 1015.416, 1679.162 1010.991, 1675.561 1008.632 C 1674.191 1007.734, 1672.907 1007, 1672.707 1007 C 1672.507 1007, 1671.816 1009.287, 1671.170 1012.083 M 461.804 1088.917 C 469.092 1100.902, 481.330 1111.489, 491.399 1114.520 L 496.209 1115.967 495.493 1113.234 C 495.099 1111.730, 494.490 1108.278, 494.139 1105.562 L 493.500 1100.624 485 1098.485 C 475.654 1096.133, 473.644 1095.249, 467 1090.567 C 460.094 1085.701, 459.789 1085.604, 461.804 1088.917 M 1672.674 1105.897 C 1674.699 1122.993, 1660.331 1144.510, 1638.580 1156.954 C 1632.204 1160.602, 1616.314 1164.994, 1609.480 1164.997 C 1603.293 1165.001, 1590.644 1161.594, 1586.874 1158.911 C 1584.081 1156.922, 1584.074 1156.922, 1580.141 1158.928 C 1574.288 1161.914, 1562.237 1165, 1556.430 1165 C 1549.636 1165, 1536.422 1161.545, 1531.984 1158.608 L 1528.421 1156.250 1523.726 1158.637 C 1517.510 1161.795, 1503.935 1164.984, 1496.667 1164.993 C 1488.637 1165.003, 1475.481 1161.481, 1469.655 1157.762 C 1466.990 1156.061, 1463.668 1152.944, 1462.272 1150.835 C 1460.876 1148.726, 1459.577 1147, 1459.384 1147 C 1459.191 1147, 1457.917 1149.204, 1456.551 1151.899 C 1452.258 1160.370, 1444.457 1165, 1434.474 1165 C 1429.482 1165, 1415.286 1161.278, 1410.903 1158.820 L 1407.306 1156.803 1403.316 1158.839 C 1397.630 1161.740, 1384.095 1165.003, 1377.833 1164.983 C 1371.865 1164.964, 1360.198 1162.201, 1355.250 1159.634 C 1352.202 1158.053, 1351.798 1158.053, 1348.750 1159.634 C 1343.966 1162.115, 1332.208 1164.963, 1326.667 1164.983 C 1320.067 1165.006, 1306.495 1161.409, 1302.218 1158.502 L 1298.706 1156.115 1293.859 1158.571 C 1287.782 1161.651, 1274.091 1164.984, 1267.480 1164.993 C 1261.436 1165.001, 1248.676 1161.617, 1245.070 1159.050 C 1242.663 1157.336, 1242.248 1157.314, 1239.485 1158.765 C 1234.614 1161.322, 1218.941 1164.958, 1212.697 1164.980 C 1204.956 1165.007, 1193.490 1162.370, 1188.250 1159.358 C 1185.912 1158.015, 1184 1157.178, 1184 1157.498 C 1184 1158.977, 1188.308 1166.281, 1190.966 1169.308 C 1198.182 1177.528, 1209.828 1181.951, 1224.333 1181.983 C 1232.390 1182, 1245.788 1179.195, 1251.326 1176.331 C 1254.071 1174.912, 1254.564 1174.948, 1257.897 1176.813 C 1263.137 1179.746, 1272.849 1182.003, 1280.144 1181.983 C 1287.489 1181.963, 1299.144 1179.173, 1305.946 1175.807 L 1310.660 1173.474 1314.844 1176.119 C 1320.196 1179.502, 1330.167 1182.005, 1338.206 1181.983 C 1344.863 1181.965, 1356.534 1179.357, 1361.419 1176.797 C 1364.086 1175.399, 1364.604 1175.422, 1367.419 1177.061 C 1372.090 1179.780, 1382.005 1182, 1389.478 1182 C 1396.763 1182, 1410.181 1178.969, 1415.972 1176.014 C 1419.518 1174.205, 1419.696 1174.205, 1422.558 1176.003 C 1426.502 1178.481, 1440.667 1182.001, 1446.667 1181.994 C 1457.379 1181.982, 1464.089 1178.182, 1468.594 1169.577 L 1471.390 1164.238 1474.138 1168.032 C 1482.847 1180.055, 1504.053 1185.093, 1524.247 1179.937 C 1528.691 1178.802, 1534.112 1176.963, 1536.295 1175.850 L 1540.263 1173.825 1544.881 1176.329 C 1551.154 1179.729, 1560.478 1182, 1568.164 1182 C 1575.118 1182, 1587.675 1178.945, 1592.615 1176.051 C 1595.657 1174.269, 1595.806 1174.275, 1598.966 1176.276 C 1607.620 1181.755, 1623.175 1183.384, 1635.500 1180.102 C 1645.126 1177.538, 1647.144 1176.651, 1655.216 1171.429 C 1663.689 1165.948, 1671.194 1158.609, 1676.619 1150.500 C 1681.138 1143.744, 1682.254 1141.158, 1684.479 1132.282 C 1685.906 1126.593, 1685.897 1125.486, 1684.383 1119.282 C 1682.392 1111.124, 1680.115 1107.088, 1675.530 1103.590 L 1672.090 1100.967 1672.674 1105.897 M 1162.815 1140.454 C 1160.238 1143.314, 1155.963 1146.707, 1153.315 1147.994 C 1150.667 1149.281, 1146.925 1151.187, 1145 1152.229 C 1130.547 1160.052, 1116.899 1163.901, 1101 1164.637 C 1090.810 1165.109, 1088.361 1164.875, 1079.500 1162.579 C 1073.818 1161.107, 1067.360 1158.658, 1064.542 1156.906 L 1059.583 1153.823 1052.541 1157.381 C 1044.444 1161.472, 1031.374 1165, 1024.313 1165 C 1018.265 1165, 1005.599 1161.563, 1001.874 1158.911 C 999.081 1156.922, 999.074 1156.922, 995.141 1158.928 C 989.288 1161.914, 977.237 1165, 971.430 1165 C 964.957 1165, 951.829 1161.676, 947.336 1158.899 L 943.897 1156.773 938.198 1159.287 C 930.904 1162.506, 919.670 1165, 912.469 1165 C 904.604 1165, 891.419 1161.441, 885.655 1157.762 C 882.990 1156.061, 879.668 1152.944, 878.272 1150.835 C 876.876 1148.726, 875.577 1147, 875.384 1147 C 875.191 1147, 873.917 1149.204, 872.551 1151.899 C 868.266 1160.355, 860.455 1165, 850.521 1165 C 838.681 1165, 820.662 1157.032, 815.829 1149.660 L 813.577 1146.225 806.178 1151.218 C 802.108 1153.964, 796.874 1157.053, 794.546 1158.083 C 787.097 1161.378, 770.007 1164.999, 762 1164.979 C 752.775 1164.956, 737.889 1161.297, 731.295 1157.433 C 725.481 1154.026, 718.184 1147.316, 714.481 1141.973 C 712.967 1139.788, 711.421 1138, 711.046 1138 C 710.670 1138, 707.546 1141.576, 704.103 1145.947 C 692.705 1160.417, 677.650 1173.085, 663.089 1180.457 C 656.122 1183.985, 640.278 1188, 633.327 1188 C 625.666 1188, 615.243 1185.187, 610.200 1181.758 C 605.725 1178.716, 599.068 1170.557, 599.025 1168.063 C 599.008 1167.066, 598.157 1167.396, 596.250 1169.140 C 579.496 1184.461, 556.555 1191.141, 537.206 1186.334 C 533.517 1185.418, 529.487 1184.016, 528.250 1183.219 C 524.691 1180.927, 525.333 1183.775, 529.921 1190.636 C 534.919 1198.110, 541.685 1202.298, 552.208 1204.435 C 562.340 1206.492, 563.681 1206.438, 575.899 1203.478 C 587.677 1200.625, 595.078 1197.032, 604.015 1189.831 C 607.411 1187.095, 610.286 1185.001, 610.405 1185.178 C 610.524 1185.355, 612.085 1187.834, 613.874 1190.687 C 619.590 1199.800, 631.198 1205.233, 645 1205.256 C 653.506 1205.270, 669.645 1200.929, 677.848 1196.420 C 691.473 1188.930, 708.430 1173.810, 719 1159.726 C 720.925 1157.161, 722.725 1155.070, 723 1155.079 C 723.275 1155.088, 725.283 1157.583, 727.463 1160.623 C 731.179 1165.806, 740.119 1173.459, 746.029 1176.515 C 747.466 1177.258, 752.284 1178.796, 756.737 1179.933 C 768.262 1182.875, 780.345 1182.707, 793.319 1179.423 C 804.506 1176.591, 809.860 1174.207, 819.055 1167.963 L 825.155 1163.821 828.552 1167.790 C 833.541 1173.619, 840.444 1177.587, 849.667 1179.927 C 867.720 1184.509, 878.439 1181.333, 884.594 1169.577 L 887.390 1164.238 890.138 1168.032 C 898.847 1180.055, 920.053 1185.093, 940.247 1179.937 C 944.691 1178.802, 950.015 1177.013, 952.078 1175.960 L 955.830 1174.046 960.165 1176.448 C 966.081 1179.726, 975.502 1182, 983.164 1182 C 990.118 1182, 1002.675 1178.945, 1007.615 1176.051 C 1010.657 1174.269, 1010.806 1174.275, 1013.966 1176.276 C 1018.777 1179.322, 1029.586 1182.002, 1036.978 1181.983 C 1046.682 1181.957, 1059.221 1178.411, 1067.023 1173.485 L 1071.144 1170.884 1075.845 1173.901 C 1078.430 1175.560, 1084.811 1178.060, 1090.023 1179.456 C 1109.504 1184.675, 1132.986 1181.705, 1153.248 1171.460 C 1158.337 1168.887, 1163.905 1166.116, 1165.621 1165.303 C 1167.338 1164.489, 1171.155 1161.380, 1174.105 1158.394 C 1178.756 1153.684, 1179.300 1152.735, 1178.209 1151.232 C 1177.517 1150.279, 1175.565 1146.678, 1173.871 1143.230 C 1169.542 1134.413, 1168.496 1134.150, 1162.815 1140.454" stroke="none" fill="#ffaded" fill-rule="evenodd"/><path d="M 743.358 935.500 C 748.324 951.872, 750.314 968.228, 749.011 981.974 C 748.518 987.184, 748.201 991.511, 748.307 991.589 C 748.413 991.667, 751.994 992.036, 756.264 992.408 L 764.028 993.086 763.454 987.293 C 760.942 961.942, 754.870 944.694, 745.366 935.915 C 743.002 933.731, 742.810 933.692, 743.358 935.500 M 1654.108 1001.250 C 1641.946 1035.922, 1635.907 1054.459, 1635.714 1057.710 C 1635.506 1061.218, 1635.631 1061.354, 1640.172 1062.536 C 1642.742 1063.206, 1646.255 1064.758, 1647.980 1065.986 C 1649.704 1067.214, 1651.335 1067.998, 1651.604 1067.729 C 1651.873 1067.460, 1654.715 1059.648, 1657.919 1050.370 C 1661.124 1041.091, 1665.123 1029.900, 1666.806 1025.500 C 1672.740 1009.993, 1673.158 1004.228, 1668.853 997.263 C 1667.073 994.382, 1660.636 989, 1658.970 989 C 1658.659 989, 1656.471 994.513, 1654.108 1001.250 M 447.333 1067.424 C 448.775 1071.183, 455.706 1080.734, 460.088 1085 C 466.902 1091.634, 474.751 1095.892, 484.951 1098.488 C 489.928 1099.754, 494.003 1100.500, 494.008 1100.145 C 494.019 1099.168, 495.961 1086.880, 496.599 1083.750 L 497.159 1081 488.829 1080.980 C 483.448 1080.967, 477.315 1080.142, 471.499 1078.648 C 461.318 1076.034, 459.658 1075.267, 452.084 1069.684 C 448.623 1067.132, 446.908 1066.317, 447.333 1067.424 M 1658.848 1087.205 C 1659.733 1096.483, 1653.932 1110.243, 1644.475 1121.298 C 1640.515 1125.927, 1631.623 1132.924, 1624.580 1136.954 C 1618.204 1140.602, 1602.314 1144.994, 1595.480 1144.997 C 1589.293 1145.001, 1576.644 1141.594, 1572.874 1138.911 C 1570.081 1136.922, 1570.074 1136.922, 1566.141 1138.928 C 1560.288 1141.914, 1548.237 1145, 1542.430 1145 C 1535.636 1145, 1522.422 1141.545, 1517.984 1138.608 L 1514.421 1136.250 1509.726 1138.637 C 1503.510 1141.795, 1489.935 1144.984, 1482.667 1144.993 C 1474.637 1145.003, 1461.481 1141.481, 1455.655 1137.762 C 1452.990 1136.061, 1449.668 1132.944, 1448.272 1130.835 C 1446.876 1128.726, 1445.577 1127, 1445.384 1127 C 1445.191 1127, 1443.917 1129.204, 1442.551 1131.899 C 1438.258 1140.370, 1430.457 1145, 1420.474 1145 C 1415.482 1145, 1401.286 1141.278, 1396.903 1138.820 L 1393.306 1136.803 1389.316 1138.839 C 1383.630 1141.740, 1370.095 1145.003, 1363.833 1144.983 C 1357.865 1144.964, 1346.198 1142.201, 1341.250 1139.634 C 1338.202 1138.053, 1337.798 1138.053, 1334.750 1139.634 C 1329.966 1142.115, 1318.208 1144.963, 1312.667 1144.983 C 1306.067 1145.006, 1292.495 1141.409, 1288.218 1138.502 L 1284.706 1136.115 1279.859 1138.571 C 1273.782 1141.651, 1260.091 1144.984, 1253.480 1144.993 C 1247.436 1145.001, 1234.676 1141.617, 1231.070 1139.050 C 1228.663 1137.336, 1228.248 1137.314, 1225.485 1138.765 C 1220.539 1141.361, 1204.898 1144.959, 1198.500 1144.972 C 1190.799 1144.988, 1177.627 1141.840, 1173.918 1139.097 L 1171.037 1136.968 1171.996 1139.491 C 1175.449 1148.571, 1180.565 1155.043, 1187.297 1158.846 C 1193.445 1162.319, 1204.580 1165.008, 1212.697 1164.980 C 1218.941 1164.958, 1234.614 1161.322, 1239.485 1158.765 C 1242.248 1157.314, 1242.663 1157.336, 1245.070 1159.050 C 1248.676 1161.617, 1261.436 1165.001, 1267.480 1164.993 C 1274.091 1164.984, 1287.782 1161.651, 1293.859 1158.571 L 1298.706 1156.115 1302.218 1158.502 C 1306.495 1161.409, 1320.067 1165.006, 1326.667 1164.983 C 1332.208 1164.963, 1343.966 1162.115, 1348.750 1159.634 C 1351.798 1158.053, 1352.202 1158.053, 1355.250 1159.634 C 1360.198 1162.201, 1371.865 1164.964, 1377.833 1164.983 C 1384.095 1165.003, 1397.630 1161.740, 1403.316 1158.839 L 1407.306 1156.803 1410.903 1158.820 C 1415.286 1161.278, 1429.482 1165, 1434.474 1165 C 1444.457 1165, 1452.258 1160.370, 1456.551 1151.899 C 1457.917 1149.204, 1459.191 1147, 1459.384 1147 C 1459.577 1147, 1460.876 1148.726, 1462.272 1150.835 C 1463.668 1152.944, 1466.990 1156.061, 1469.655 1157.762 C 1475.481 1161.481, 1488.637 1165.003, 1496.667 1164.993 C 1503.935 1164.984, 1517.510 1161.795, 1523.726 1158.637 L 1528.421 1156.250 1531.984 1158.608 C 1536.422 1161.545, 1549.636 1165, 1556.430 1165 C 1562.237 1165, 1574.288 1161.914, 1580.141 1158.928 C 1584.074 1156.922, 1584.081 1156.922, 1586.874 1158.911 C 1590.644 1161.594, 1603.293 1165.001, 1609.480 1164.997 C 1616.314 1164.994, 1632.204 1160.602, 1638.580 1156.954 C 1655.726 1147.144, 1668.100 1132.334, 1671.618 1117.413 C 1673.157 1110.884, 1673.229 1108.964, 1672.168 1102.774 C 1670.702 1094.226, 1668.283 1090.008, 1662.678 1086.225 L 1658.485 1083.395 1658.848 1087.205 M 1149.868 1119.299 C 1146.515 1123.049, 1142.267 1126.555, 1139.368 1127.966 C 1136.691 1129.269, 1132.925 1131.187, 1131 1132.229 C 1116.547 1140.052, 1102.899 1143.901, 1087 1144.637 C 1076.810 1145.109, 1074.361 1144.875, 1065.500 1142.579 C 1059.818 1141.107, 1053.360 1138.658, 1050.542 1136.906 L 1045.583 1133.823 1038.541 1137.381 C 1030.444 1141.472, 1017.374 1145, 1010.313 1145 C 1004.265 1145, 991.599 1141.563, 987.874 1138.911 C 985.081 1136.922, 985.074 1136.922, 981.141 1138.928 C 975.288 1141.914, 963.237 1145, 957.430 1145 C 950.957 1145, 937.829 1141.676, 933.336 1138.899 L 929.897 1136.773 924.198 1139.287 C 916.904 1142.506, 905.670 1145, 898.469 1145 C 890.604 1145, 877.419 1141.441, 871.655 1137.762 C 868.990 1136.061, 865.668 1132.944, 864.272 1130.835 C 862.876 1128.726, 861.577 1127, 861.384 1127 C 861.191 1127, 859.917 1129.204, 858.551 1131.899 C 854.266 1140.355, 846.455 1145, 836.521 1145 C 824.681 1145, 806.662 1137.032, 801.829 1129.660 L 799.577 1126.225 792.178 1131.218 C 788.108 1133.964, 782.874 1137.053, 780.546 1138.083 C 773.097 1141.378, 756.007 1144.999, 748 1144.979 C 738.775 1144.956, 723.889 1141.297, 717.295 1137.433 C 711.481 1134.026, 704.184 1127.316, 700.481 1121.973 C 698.967 1119.788, 697.421 1118, 697.046 1118 C 696.670 1118, 693.546 1121.576, 690.103 1125.947 C 678.705 1140.417, 663.650 1153.085, 649.089 1160.457 C 642.122 1163.985, 626.278 1168, 619.327 1168 C 611.666 1168, 601.243 1165.187, 596.200 1161.758 C 591.725 1158.716, 585.068 1150.557, 585.025 1148.063 C 585.008 1147.066, 584.157 1147.396, 582.250 1149.140 C 565.372 1164.575, 541.422 1171.442, 522.978 1166.136 C 519.415 1165.111, 515.732 1163.946, 514.794 1163.546 C 513.286 1162.904, 513.198 1163.203, 514.037 1166.129 C 515.586 1171.529, 521.183 1178.894, 526 1181.870 C 544.798 1193.483, 575.767 1187.871, 596.250 1169.140 C 598.157 1167.396, 599.008 1167.066, 599.025 1168.063 C 599.068 1170.557, 605.725 1178.716, 610.200 1181.758 C 615.243 1185.187, 625.666 1188, 633.327 1188 C 640.278 1188, 656.122 1183.985, 663.089 1180.457 C 677.650 1173.085, 692.705 1160.417, 704.103 1145.947 C 707.546 1141.576, 710.670 1138, 711.046 1138 C 711.421 1138, 712.967 1139.788, 714.481 1141.973 C 718.184 1147.316, 725.481 1154.026, 731.295 1157.433 C 737.889 1161.297, 752.775 1164.956, 762 1164.979 C 770.007 1164.999, 787.097 1161.378, 794.546 1158.083 C 796.874 1157.053, 802.108 1153.964, 806.178 1151.218 L 813.577 1146.225 815.829 1149.660 C 820.662 1157.032, 838.681 1165, 850.521 1165 C 860.455 1165, 868.266 1160.355, 872.551 1151.899 C 873.917 1149.204, 875.191 1147, 875.384 1147 C 875.577 1147, 876.876 1148.726, 878.272 1150.835 C 879.668 1152.944, 882.990 1156.061, 885.655 1157.762 C 891.419 1161.441, 904.604 1165, 912.469 1165 C 919.670 1165, 930.904 1162.506, 938.198 1159.287 L 943.897 1156.773 947.336 1158.899 C 951.829 1161.676, 964.957 1165, 971.430 1165 C 977.237 1165, 989.288 1161.914, 995.141 1158.928 C 999.074 1156.922, 999.081 1156.922, 1001.874 1158.911 C 1005.599 1161.563, 1018.265 1165, 1024.313 1165 C 1031.374 1165, 1044.444 1161.472, 1052.541 1157.381 L 1059.583 1153.823 1064.542 1156.906 C 1067.360 1158.658, 1073.818 1161.107, 1079.500 1162.579 C 1088.361 1164.875, 1090.810 1165.109, 1101 1164.637 C 1116.933 1163.899, 1130.967 1159.930, 1145 1152.194 C 1146.925 1151.133, 1150.192 1149.535, 1152.260 1148.644 C 1156.249 1146.924, 1164.453 1139.890, 1166.135 1136.748 C 1166.914 1135.292, 1166.595 1134.157, 1164.714 1131.686 C 1161.241 1127.124, 1158.277 1120.991, 1157.472 1116.703 C 1157.090 1114.667, 1156.490 1113, 1156.139 1113.001 C 1155.787 1113.001, 1152.966 1115.835, 1149.868 1119.299" stroke="none" fill="#c747ed" fill-rule="evenodd"/><path d="M 704.993 902.280 C 711.903 912.621, 715.104 926.145, 715.104 945 C 715.105 963.198, 711.293 984.054, 704.084 1005.288 L 701.101 1014.076 707.130 1008.620 C 716.866 999.810, 729.322 994.163, 742.750 992.473 C 745.638 992.110, 748.012 991.742, 748.027 991.656 C 748.042 991.570, 748.472 987.225, 748.982 982 C 750.843 962.932, 745.815 936.494, 738.063 924.597 C 730.380 912.805, 719.198 903.834, 708.171 900.616 L 702.842 899.061 704.993 902.280 M 547.883 931.852 C 552.277 937.400, 555.518 944.306, 558.408 954.281 C 564.374 974.867, 564.443 997.928, 558.621 1025.489 C 557.809 1029.333, 557.254 1032.588, 557.389 1032.722 C 558.254 1033.587, 585 964.351, 585 961.246 C 585 959.228, 579.427 951.245, 574.110 945.647 C 567.769 938.970, 559.573 933.015, 553.009 930.314 C 545.223 927.110, 544.338 927.376, 547.883 931.852 M 660.646 941.452 C 659.191 942.801, 658 944.531, 658 945.297 C 658 947.945, 654.464 950, 649.921 949.994 C 643.484 949.986, 638.631 948.365, 633.639 944.554 L 629.231 941.189 628.626 944.845 C 627.183 953.576, 627.274 953.721, 634.512 954.182 C 638.541 954.438, 641.607 955.179, 642.551 956.123 C 645.166 958.737, 646.280 970.369, 645.702 989 C 645.119 1007.772, 643.498 1020.190, 639.531 1036.263 C 638.159 1041.822, 637.160 1046.493, 637.311 1046.644 C 638.039 1047.373, 647.008 1032.130, 652.549 1020.747 C 663.534 998.179, 669.613 976.427, 670.679 955.880 C 671.457 940.889, 671.004 939, 666.627 939 C 664.473 939, 662.355 939.868, 660.646 941.452 M 1034.987 972.750 C 1019.878 1013.031, 1014.137 1032.857, 1013.267 1047.750 C 1012.788 1055.969, 1012.915 1057, 1014.411 1057 C 1017.317 1057, 1020.615 1052.304, 1021.936 1046.284 C 1027.275 1021.963, 1046.820 999.623, 1067.596 994.096 C 1072.916 992.680, 1074.118 990.134, 1072.450 983.811 C 1069.383 972.182, 1060.771 967.039, 1044.322 967.012 L 1037.144 967 1034.987 972.750 M 1275.080 981.069 C 1267.343 1001.820, 1264.345 1010.902, 1260.411 1025.500 C 1256.399 1040.392, 1254.669 1057, 1257.131 1057 C 1260.634 1057, 1262.950 1053.768, 1265.548 1045.249 C 1273.294 1019.854, 1290.498 1000.067, 1309.682 994.490 C 1316.216 992.591, 1317.311 990.572, 1315.679 983.437 C 1314.307 977.438, 1308.141 970.744, 1302.351 968.969 C 1300.233 968.320, 1294.429 967.562, 1289.454 967.284 L 1280.408 966.779 1275.080 981.069 M 1619.987 972.750 C 1604.878 1013.031, 1599.137 1032.857, 1598.267 1047.750 C 1597.784 1056.025, 1597.908 1057, 1599.439 1057 C 1600.381 1057, 1602.130 1055.828, 1603.326 1054.395 C 1608.821 1047.812, 1608.947 1047.740, 1614.205 1048.246 C 1617.852 1048.596, 1619.887 1049.434, 1621.839 1051.387 C 1624.199 1053.749, 1624.497 1054.812, 1624.477 1060.775 C 1624.446 1069.553, 1621.078 1075.985, 1611.526 1085.500 C 1591.898 1105.055, 1565.572 1107.647, 1554.914 1091.073 L 1553.353 1088.647 1546.634 1093.441 C 1535.449 1101.423, 1524.287 1103.732, 1512.932 1100.412 C 1508.725 1099.182, 1506.363 1097.632, 1502.458 1093.541 L 1497.415 1088.257 1494.458 1090.661 C 1482.385 1100.474, 1465.466 1104.406, 1452.229 1100.475 C 1439.304 1096.637, 1433.590 1084.030, 1436.953 1066.775 C 1438.053 1061.134, 1444.206 1043.233, 1449.851 1029.250 C 1451.017 1026.362, 1451.756 1024, 1451.493 1024 C 1450.525 1024, 1440.182 1038.760, 1435.113 1047.372 C 1429.196 1057.427, 1419.109 1077.364, 1413.546 1090 C 1411.488 1094.675, 1408.898 1099.287, 1407.791 1100.250 C 1402.438 1104.904, 1381.993 1098.961, 1378.057 1091.607 L 1376.811 1089.278 1370.859 1093.253 C 1354.409 1104.238, 1334.931 1104.931, 1324.889 1094.889 L 1320.858 1090.858 1314.355 1095.095 C 1303.957 1101.869, 1293.796 1103.588, 1282.932 1100.412 C 1278.736 1099.185, 1276.362 1097.632, 1272.500 1093.585 L 1267.500 1088.346 1263.500 1091.268 C 1248.741 1102.048, 1231.432 1104.960, 1220.433 1098.514 C 1217.878 1097.016, 1215.047 1094.491, 1214.143 1092.902 C 1213.240 1091.313, 1212.214 1090.010, 1211.864 1090.006 C 1211.514 1090.003, 1208.589 1091.752, 1205.364 1093.893 C 1197.851 1098.881, 1191.298 1101.118, 1182.354 1101.747 C 1169.124 1102.678, 1159.897 1099.093, 1155.291 1091.233 C 1153.067 1087.439, 1152.526 1085.119, 1152.181 1077.903 C 1151.673 1067.287, 1153.803 1059.034, 1162.984 1036.040 C 1166.341 1027.633, 1168.955 1020.647, 1168.794 1020.516 C 1168.632 1020.385, 1166.025 1020.035, 1163 1019.739 L 1157.500 1019.201 1151.500 1031.289 C 1137.417 1059.663, 1117.325 1088, 1111.291 1088 C 1110.153 1088, 1106.148 1089.796, 1102.391 1091.992 C 1077.862 1106.325, 1045.582 1105.204, 1031.121 1089.515 L 1027.318 1085.390 1022.909 1089.188 C 1004.172 1105.330, 979.643 1106.202, 969.914 1091.073 L 968.353 1088.647 961.634 1093.441 C 945.912 1104.661, 928.361 1104.850, 917.757 1093.913 L 913.015 1089.022 906.277 1093.541 C 898.182 1098.969, 892.033 1101.034, 881.915 1101.722 C 863.974 1102.942, 853.494 1095.027, 852.232 1079.304 C 851.956 1075.864, 852.281 1070.226, 852.953 1066.775 C 854.053 1061.134, 860.206 1043.233, 865.851 1029.250 C 867.017 1026.362, 867.756 1024, 867.493 1024 C 866.525 1024, 856.182 1038.760, 851.113 1047.372 C 845.196 1057.427, 835.109 1077.364, 829.546 1090 C 825.198 1099.876, 823.172 1102, 818.099 1102 C 812.643 1102, 803.374 1099.327, 799.350 1096.592 C 792.448 1091.902, 787.969 1082.644, 787.675 1072.458 L 787.500 1066.416 782.874 1072.994 C 770.684 1090.329, 752.931 1100.430, 732.408 1101.709 C 703.921 1103.483, 685.842 1086.014, 685.842 1056.713 C 685.842 1052.374, 685.706 1048.977, 685.539 1049.162 C 685.372 1049.348, 682.233 1054.576, 678.564 1060.779 C 666.414 1081.318, 650.209 1100.752, 636.830 1110.828 C 624.308 1120.259, 609.457 1125.522, 597.500 1124.765 C 588.928 1124.223, 584.828 1122.211, 581.246 1116.788 C 578.636 1112.838, 578.508 1112.082, 578.651 1101.566 C 578.762 1093.452, 579.474 1087.834, 581.322 1080.504 C 582.707 1075.006, 583.720 1070.387, 583.572 1070.239 C 583.424 1070.091, 581.165 1073.590, 578.552 1078.015 C 572.106 1088.932, 561.432 1102.557, 554.347 1108.912 C 542.122 1119.878, 530.218 1125.005, 516.613 1125.163 C 510.412 1125.236, 508.068 1124.793, 504.014 1122.787 C 499.034 1120.322, 499.032 1120.322, 498.370 1122.410 C 497.171 1126.188, 497.665 1137.392, 499.296 1143.417 C 501.491 1151.525, 506.891 1159.081, 512.770 1162.268 C 532.937 1173.201, 561.928 1167.724, 582.250 1149.140 C 584.157 1147.396, 585.008 1147.066, 585.025 1148.063 C 585.068 1150.557, 591.725 1158.716, 596.200 1161.758 C 601.243 1165.187, 611.666 1168, 619.327 1168 C 626.278 1168, 642.122 1163.985, 649.089 1160.457 C 663.650 1153.085, 678.705 1140.417, 690.103 1125.947 C 693.546 1121.576, 696.670 1118, 697.046 1118 C 697.421 1118, 698.967 1119.788, 700.481 1121.973 C 704.184 1127.316, 711.481 1134.026, 717.295 1137.433 C 723.889 1141.297, 738.775 1144.956, 748 1144.979 C 756.007 1144.999, 773.097 1141.378, 780.546 1138.083 C 782.874 1137.053, 788.108 1133.964, 792.178 1131.218 L 799.577 1126.225 801.829 1129.660 C 806.662 1137.032, 824.681 1145, 836.521 1145 C 846.455 1145, 854.266 1140.355, 858.551 1131.899 C 859.917 1129.204, 861.191 1127, 861.384 1127 C 861.577 1127, 862.876 1128.726, 864.272 1130.835 C 865.668 1132.944, 868.990 1136.061, 871.655 1137.762 C 877.419 1141.441, 890.604 1145, 898.469 1145 C 905.670 1145, 916.904 1142.506, 924.198 1139.287 L 929.897 1136.773 933.336 1138.899 C 937.829 1141.676, 950.957 1145, 957.430 1145 C 963.237 1145, 975.288 1141.914, 981.141 1138.928 C 985.074 1136.922, 985.081 1136.922, 987.874 1138.911 C 991.599 1141.563, 1004.265 1145, 1010.313 1145 C 1017.374 1145, 1030.444 1141.472, 1038.541 1137.381 L 1045.583 1133.823 1050.542 1136.906 C 1053.360 1138.658, 1059.818 1141.107, 1065.500 1142.579 C 1074.361 1144.875, 1076.810 1145.109, 1087 1144.637 C 1102.899 1143.901, 1116.547 1140.052, 1131 1132.229 C 1132.925 1131.187, 1136.691 1129.269, 1139.368 1127.966 C 1142.267 1126.555, 1146.515 1123.049, 1149.868 1119.299 C 1152.966 1115.835, 1155.787 1113.001, 1156.139 1113.001 C 1156.490 1113, 1157.090 1114.667, 1157.472 1116.703 C 1158.231 1120.746, 1161.123 1126.894, 1164.265 1131.145 C 1170.022 1138.932, 1185.046 1145, 1198.500 1144.972 C 1204.898 1144.959, 1220.539 1141.361, 1225.485 1138.765 C 1228.248 1137.314, 1228.663 1137.336, 1231.070 1139.050 C 1234.676 1141.617, 1247.436 1145.001, 1253.480 1144.993 C 1260.091 1144.984, 1273.782 1141.651, 1279.859 1138.571 L 1284.706 1136.115 1288.218 1138.502 C 1292.495 1141.409, 1306.067 1145.006, 1312.667 1144.983 C 1318.208 1144.963, 1329.966 1142.115, 1334.750 1139.634 C 1337.798 1138.053, 1338.202 1138.053, 1341.250 1139.634 C 1346.198 1142.201, 1357.865 1144.964, 1363.833 1144.983 C 1370.095 1145.003, 1383.630 1141.740, 1389.316 1138.839 L 1393.306 1136.803 1396.903 1138.820 C 1401.286 1141.278, 1415.482 1145, 1420.474 1145 C 1430.457 1145, 1438.258 1140.370, 1442.551 1131.899 C 1443.917 1129.204, 1445.191 1127, 1445.384 1127 C 1445.577 1127, 1446.876 1128.726, 1448.272 1130.835 C 1449.668 1132.944, 1452.990 1136.061, 1455.655 1137.762 C 1461.481 1141.481, 1474.637 1145.003, 1482.667 1144.993 C 1489.935 1144.984, 1503.510 1141.795, 1509.726 1138.637 L 1514.421 1136.250 1517.984 1138.608 C 1522.422 1141.545, 1535.636 1145, 1542.430 1145 C 1548.237 1145, 1560.288 1141.914, 1566.141 1138.928 C 1570.074 1136.922, 1570.081 1136.922, 1572.874 1138.911 C 1576.644 1141.594, 1589.293 1145.001, 1595.480 1144.997 C 1602.314 1144.994, 1618.204 1140.602, 1624.580 1136.954 C 1640.962 1127.582, 1653.227 1113.363, 1657.157 1099.189 C 1659.378 1091.182, 1659.454 1086.961, 1657.485 1081 C 1653.752 1069.697, 1649.217 1064.894, 1640.014 1062.496 C 1635.648 1061.358, 1635.507 1061.202, 1635.714 1057.710 C 1635.911 1054.401, 1643.035 1032.566, 1654.218 1001 C 1658.435 989.097, 1658.589 988.277, 1657.447 983.828 C 1654.471 972.241, 1645.772 967.039, 1629.322 967.012 L 1622.144 967 1619.987 972.750 M 498.655 981.829 C 497.745 982.835, 497 985.054, 497 986.761 C 497 990.600, 499.141 991.463, 506.410 990.554 C 510.849 990, 511.871 990.200, 513.435 991.929 C 514.974 993.628, 515.189 995.149, 514.785 1001.446 C 513.977 1014.035, 507.117 1025.225, 496.331 1031.546 C 486.678 1037.203, 467.695 1039.631, 456.500 1036.641 C 445.530 1033.710, 435.335 1025.995, 429.887 1016.500 L 427.019 1011.500 427.018 1017 C 427.018 1024.284, 431.382 1043.317, 434.384 1049.125 C 439.929 1059.853, 450.032 1069.928, 460.575 1075.242 C 466.652 1078.305, 481.210 1081.108, 489.441 1080.798 L 497.381 1080.500 498.737 1075 C 499.482 1071.975, 502.072 1062.975, 504.491 1055 C 513.564 1025.088, 516.110 1014.125, 516.703 1002.416 C 517.337 989.890, 516.320 985.183, 512.293 982.016 C 508.887 979.337, 501.008 979.229, 498.655 981.829 M 1161.560 982.218 C 1160.702 983.443, 1160 985.008, 1160 985.697 C 1160 987.186, 1164.221 989.484, 1168.750 990.459 C 1173.597 991.503, 1195 992.621, 1195 991.830 C 1195 990.489, 1187.753 985.200, 1185.149 984.642 C 1183.692 984.329, 1179.125 983.377, 1175 982.526 C 1170.875 981.675, 1166.514 980.757, 1165.310 980.485 C 1163.807 980.147, 1162.630 980.691, 1161.560 982.218 M 911.431 1014.254 C 911.367 1022.676, 910.900 1024.853, 906.181 1038.687 C 903.331 1047.040, 901 1054.578, 901 1055.437 C 901 1057.745, 904.357 1057.335, 906.630 1054.750 C 907.718 1053.513, 909.610 1048.975, 910.835 1044.666 C 913.644 1034.784, 919.853 1021.983, 924.976 1015.512 C 927.148 1012.769, 928.552 1010.152, 928.097 1009.697 C 927.426 1009.026, 913.806 1005.069, 912 1005.021 C 911.725 1005.014, 911.469 1009.168, 911.431 1014.254 M 1109.542 1006.788 C 1112.511 1013.778, 1113.156 1016.933, 1112.655 1022 C 1111.789 1030.746, 1110.266 1034.488, 1105.346 1039.961 C 1099.194 1046.802, 1093.045 1050.896, 1084 1054.172 L 1076.500 1056.888 1083.201 1056.944 C 1091.668 1057.015, 1098.038 1055.614, 1104.909 1052.169 C 1109.746 1049.744, 1110.782 1048.618, 1114.712 1041.510 C 1117.128 1037.139, 1121.336 1028.387, 1124.063 1022.061 L 1129.020 1010.559 1126.117 1007.655 C 1123.382 1004.920, 1123.177 1004.867, 1122.584 1006.735 C 1121.963 1008.693, 1121.870 1008.695, 1115.385 1006.897 C 1109.252 1005.196, 1108.863 1005.189, 1109.542 1006.788 M 1211.776 1010.687 C 1212.241 1017.252, 1210.100 1026.657, 1204.534 1042.500 C 1200.449 1054.125, 1200.135 1057, 1202.949 1057 C 1206.509 1057, 1209.808 1050.956, 1213.039 1038.513 C 1214.730 1031.997, 1217.439 1022.532, 1219.057 1017.480 C 1220.676 1012.427, 1222 1008.058, 1222 1007.772 C 1222 1007.485, 1220.702 1006.990, 1219.117 1006.673 C 1217.531 1006.356, 1215.138 1005.822, 1213.798 1005.486 C 1211.395 1004.882, 1211.369 1004.951, 1211.776 1010.687 M 1378.503 1009.250 C 1370.964 1027.940, 1366 1045.490, 1366 1053.458 C 1366 1056.221, 1366.402 1057, 1367.826 1057 C 1370.754 1057, 1373.658 1052.987, 1375.799 1045.982 C 1378.861 1035.964, 1384.305 1022.338, 1388.881 1013.237 L 1393.022 1005 1386.620 1005 L 1380.217 1005 1378.503 1009.250 M 1495.431 1014.254 C 1495.367 1022.676, 1494.900 1024.853, 1490.181 1038.687 C 1487.331 1047.040, 1485 1054.578, 1485 1055.437 C 1485 1058.010, 1488.643 1057.213, 1491.295 1054.061 C 1492.655 1052.445, 1494.762 1047.849, 1495.977 1043.849 C 1498.907 1034.205, 1505.094 1021.678, 1509.973 1015.517 C 1513.384 1011.208, 1513.698 1010.410, 1512.293 1009.624 C 1510.914 1008.853, 1497.494 1005.061, 1496 1005.021 C 1495.725 1005.014, 1495.469 1009.168, 1495.431 1014.254 M 790.752 1013.903 C 792.932 1018.325, 794.251 1022.788, 794.752 1027.438 L 795.500 1034.375 799.853 1024.124 C 802.247 1018.485, 804.047 1013.733, 803.853 1013.563 C 802.495 1012.374, 795.742 1009.488, 792 1008.497 L 787.500 1007.306 790.752 1013.903 M 746.500 1021.569 C 738.268 1025.842, 733 1034.897, 733 1044.773 C 733 1050.492, 733.303 1051.457, 735.923 1054.077 C 738.436 1056.590, 739.608 1057, 744.275 1057 C 751.033 1057, 755.238 1054.404, 759.411 1047.654 C 764.057 1040.138, 764.343 1026.343, 759.944 1021.944 C 757.535 1019.535, 750.782 1019.347, 746.500 1021.569 M 970.423 1021.888 C 963.834 1025.897, 954.088 1043.028, 953.212 1052.141 C 952.935 1055.025, 953.152 1057, 953.745 1057 C 955.756 1057, 962.987 1047.975, 966.390 1041.218 C 970.112 1033.828, 974.290 1022.366, 973.797 1020.899 C 973.634 1020.413, 972.116 1020.858, 970.423 1021.888 M 1080.942 1022.393 C 1077.735 1024.573, 1072 1031.583, 1072 1033.324 C 1072 1033.718, 1073.756 1033.145, 1075.903 1032.049 C 1079.931 1029.994, 1086 1023.517, 1086 1021.272 C 1086 1019.446, 1084.930 1019.683, 1080.942 1022.393 M 1326.404 1021.035 C 1322.825 1022.378, 1316.914 1030.126, 1312.700 1039 C 1308.874 1047.056, 1306.645 1057, 1308.665 1057 C 1310.395 1057, 1317.789 1048.503, 1320.848 1043 C 1324.728 1036.018, 1329.190 1024.218, 1328.799 1021.971 C 1328.573 1020.670, 1327.988 1020.441, 1326.404 1021.035 M 1555.423 1021.888 C 1551.148 1024.489, 1545.356 1032.707, 1541.380 1041.814 C 1538.232 1049.026, 1536.915 1057, 1538.873 1057 C 1540.773 1057, 1548.086 1047.780, 1551.390 1041.218 C 1555.112 1033.828, 1559.290 1022.366, 1558.797 1020.899 C 1558.634 1020.413, 1557.116 1020.858, 1555.423 1021.888" stroke="none" fill="#5713ed" fill-rule="evenodd"/><path d="M 653.500 889.329 C 643.951 892.484, 637.442 897.825, 632.979 906.166 C 630.005 911.726, 629.541 913.604, 629.186 921.529 C 628.783 930.502, 628.801 930.584, 632.155 934.981 C 636.353 940.484, 640.407 942.906, 646.665 943.647 C 651.464 944.215, 651.545 944.178, 653.249 940.604 C 655.542 935.795, 660.282 933.008, 666.177 933.004 C 670.042 933.001, 671.215 933.458, 672.927 935.635 C 674.742 937.942, 675 939.653, 674.999 949.385 C 674.996 971.613, 668.377 997.039, 655.966 1022.500 C 648.023 1038.794, 639.552 1051.315, 629.407 1061.758 L 620.915 1070.500 623.339 1065.500 C 629.528 1052.730, 635.884 1027.667, 638.555 1005.500 C 640.216 991.709, 640.224 962.790, 638.567 960.109 C 638.097 959.347, 630.453 959, 614.177 959 L 590.471 959 581.059 984.250 C 563.553 1031.213, 553.539 1052.211, 543.007 1064.040 L 538.145 1069.500 541.728 1060.500 C 546.603 1048.256, 550.572 1034.127, 553.665 1018 C 555.769 1007.030, 556.266 1001.408, 556.321 988 C 556.361 978.449, 555.855 968.763, 555.120 965 C 550.067 939.127, 538.287 923.920, 518.500 917.725 C 512.820 915.947, 509.049 915.531, 498.500 915.517 C 483.411 915.497, 477.719 916.659, 466.500 922.047 C 449.479 930.221, 437.444 944.441, 431.109 963.864 C 424.937 982.789, 427.033 1004.044, 436.314 1016.631 C 441.105 1023.128, 446.672 1027.432, 453.187 1029.677 C 463.331 1033.171, 479.311 1032.242, 489.620 1027.557 C 500.727 1022.509, 507.781 1012.592, 508.737 1000.683 L 509.245 994.355 503.373 994.732 C 498.739 995.031, 496.814 994.680, 494.250 993.070 C 491.353 991.251, 491 990.531, 491 986.449 C 491 977.721, 494.643 974.055, 503.349 974.022 C 511.057 973.993, 515.545 976.188, 518.128 981.251 C 524.208 993.168, 521.947 1010.500, 508.510 1055 C 495.646 1097.603, 494.910 1112.330, 505.406 1117.097 C 510.752 1119.525, 521.705 1119.555, 528.632 1117.161 C 551.456 1109.272, 570.755 1084.533, 595.986 1030.819 C 599.004 1024.395, 601.642 1019.308, 601.849 1019.516 C 602.491 1020.157, 599.995 1029.648, 593.307 1052 C 582.950 1086.616, 580.299 1102.258, 583.410 1110.403 C 585.973 1117.115, 588.759 1118.509, 599.500 1118.454 C 606.846 1118.417, 609.654 1117.931, 614.779 1115.809 C 624.756 1111.678, 631.683 1107.079, 640.676 1098.616 C 680.226 1061.395, 710.816 989.602, 708.686 939 C 707.790 917.717, 704.297 908.193, 693.832 898.505 C 686.155 891.397, 679.448 888.866, 667 888.379 C 660.850 888.138, 656.089 888.473, 653.500 889.329 M 1000.542 967.776 C 996.571 976.528, 987.257 997.804, 986.743 999.297 C 986.592 999.735, 984.901 999.442, 982.984 998.644 C 974.654 995.180, 962.236 995.669, 950.958 999.906 C 935.499 1005.714, 919.442 1026.121, 914.236 1046.574 C 911.634 1056.801, 907.774 1061, 900.977 1061 C 893.553 1061, 893.265 1056.909, 899.403 1038.620 C 906.807 1016.557, 907.664 1007.481, 902.832 1002.307 C 899.348 998.577, 895.949 997.150, 888.879 996.452 C 873.870 994.968, 856.414 1002.050, 842.187 1015.393 L 838.874 1018.500 841.843 1010.500 C 843.476 1006.100, 845.304 1001.233, 845.906 999.685 C 846.508 998.137, 847 996.674, 847 996.435 C 847 996.196, 840.720 996, 833.044 996 L 819.088 996 814.905 1003.163 C 808.036 1014.924, 801.350 1029.726, 796.927 1042.966 C 793.476 1053.296, 792.673 1057.191, 792.239 1065.698 C 791.814 1074.013, 792.050 1076.843, 793.480 1080.587 C 796.996 1089.792, 803.250 1094.307, 814.286 1095.604 L 819.576 1096.225 825.883 1082.363 C 843.416 1043.832, 861.649 1016.220, 870.766 1014.397 C 873.774 1013.795, 874 1013.939, 874 1016.456 C 874 1017.945, 871.480 1025.538, 868.401 1033.331 C 860.121 1054.282, 857.119 1063.856, 856.410 1071.579 C 855.155 1085.230, 859.691 1092.756, 870.529 1095.006 C 883.517 1097.702, 897.308 1093.548, 908.711 1083.503 L 913.922 1078.913 916.412 1083.826 C 919.637 1090.190, 923.641 1093.475, 930.052 1095.012 C 941.191 1097.685, 952.227 1093.831, 962.876 1083.549 L 969.601 1077.057 970.794 1081.519 C 973.133 1090.264, 981.030 1096, 990.733 1096 C 1000.154 1096, 1012.645 1090.051, 1021.787 1081.211 C 1024.795 1078.303, 1027.346 1076.053, 1027.455 1076.211 C 1027.564 1076.370, 1028.667 1078.187, 1029.908 1080.250 C 1037.213 1092.397, 1053.918 1097.997, 1074.063 1095.051 C 1084.578 1093.514, 1093.121 1090.312, 1101.950 1084.601 C 1105.758 1082.137, 1109.032 1080.595, 1109.225 1081.174 C 1109.849 1083.048, 1121.172 1069.795, 1128.626 1058.465 C 1132.618 1052.396, 1139.808 1039.796, 1144.603 1030.465 C 1149.398 1021.134, 1153.423 1013.363, 1153.547 1013.196 C 1153.672 1013.029, 1158.373 1013.210, 1163.993 1013.597 L 1174.213 1014.301 1173.681 1017.581 C 1173.388 1019.386, 1170.197 1028.297, 1166.591 1037.384 C 1158.396 1058.031, 1156 1066.604, 1156 1075.280 C 1156 1085.928, 1159.907 1092.004, 1168.373 1094.518 C 1181.016 1098.273, 1194.730 1094.773, 1207.209 1084.607 L 1212.794 1080.058 1215.422 1085.431 C 1218.504 1091.730, 1221.161 1093.720, 1228.567 1095.273 C 1238.780 1097.416, 1252.474 1092.596, 1263.078 1083.128 L 1268.655 1078.147 1271.271 1083.479 C 1274.493 1090.050, 1278.966 1093.585, 1285.954 1095.083 C 1296.012 1097.241, 1305.756 1094.189, 1316.253 1085.595 L 1322.006 1080.885 1323.067 1083.693 C 1323.650 1085.237, 1325.336 1087.778, 1326.814 1089.339 C 1331.482 1094.273, 1334.727 1095.426, 1344.052 1095.465 C 1351.940 1095.497, 1353.187 1095.212, 1360.122 1091.784 C 1364.258 1089.740, 1369.727 1086.232, 1372.277 1083.988 L 1376.912 1079.907 1378.859 1083.704 C 1382.536 1090.875, 1388.328 1094.433, 1398.214 1095.595 L 1403.576 1096.225 1409.883 1082.363 C 1427.416 1043.832, 1445.649 1016.220, 1454.766 1014.397 C 1457.774 1013.795, 1458 1013.939, 1458 1016.456 C 1458 1017.945, 1455.480 1025.538, 1452.401 1033.331 C 1444.121 1054.282, 1441.119 1063.856, 1440.410 1071.579 C 1439.155 1085.230, 1443.691 1092.756, 1454.529 1095.006 C 1467.726 1097.746, 1481.471 1093.507, 1493.103 1083.110 L 1498.706 1078.102 1501.061 1083.130 C 1504.134 1089.692, 1508.552 1093.453, 1515.002 1095 C 1526.194 1097.685, 1537.207 1093.849, 1547.876 1083.549 L 1554.601 1077.057 1555.794 1081.519 C 1560.274 1098.270, 1580.766 1100.619, 1600.371 1086.629 C 1614.655 1076.436, 1623.021 1060.021, 1617 1054 C 1613.932 1050.932, 1611.240 1051.570, 1606.448 1056.500 C 1602.671 1060.386, 1601.517 1061, 1597.986 1061 C 1594.232 1061, 1593.774 1060.704, 1592.383 1057.374 C 1589.738 1051.045, 1592.570 1034.597, 1601.056 1007 C 1604.162 996.900, 1614.169 968.731, 1617.486 960.750 C 1618.160 959.130, 1617.146 959.002, 1603.857 959.026 L 1589.500 959.051 1585.542 967.776 C 1581.571 976.528, 1572.257 997.804, 1571.743 999.297 C 1571.592 999.735, 1569.901 999.442, 1567.984 998.644 C 1555.516 993.458, 1536.625 996.986, 1524.482 1006.768 C 1512.914 1016.088, 1503.987 1030.040, 1499.063 1046.500 C 1496.091 1056.434, 1491.655 1061, 1484.977 1061 C 1477.553 1061, 1477.265 1056.909, 1483.403 1038.620 C 1490.807 1016.557, 1491.664 1007.481, 1486.832 1002.307 C 1483.348 998.577, 1479.949 997.150, 1472.879 996.452 C 1457.870 994.968, 1440.414 1002.050, 1426.187 1015.393 L 1422.874 1018.500 1425.843 1010.500 C 1427.476 1006.100, 1429.304 1001.233, 1429.906 999.685 C 1430.508 998.137, 1431 996.674, 1431 996.435 C 1431 996.196, 1424.720 996, 1417.044 996 L 1403.088 996 1398.905 1003.163 C 1392.184 1014.671, 1385.386 1029.630, 1381.216 1042.091 C 1377.078 1054.454, 1375.919 1056.625, 1372.027 1059.300 C 1369.169 1061.266, 1362.953 1061.553, 1361.200 1059.800 C 1357.503 1056.103, 1361.907 1033.813, 1370.939 1010.500 C 1373.710 1003.350, 1375.982 997.163, 1375.988 996.750 C 1375.995 996.337, 1369.802 996, 1362.227 996 L 1348.455 996 1346.606 999.434 L 1344.757 1002.867 1341.086 1000.438 C 1333.972 995.730, 1321.174 995.017, 1309.500 998.678 C 1291.634 1004.281, 1275.457 1023.619, 1269.079 1047 C 1266.497 1056.463, 1262.275 1061, 1256.050 1061 C 1250.821 1061, 1249.755 1058.932, 1249.899 1049.069 C 1250.087 1036.208, 1257.960 1007.762, 1270.613 974.222 C 1273.576 966.368, 1276 959.731, 1276 959.472 C 1276 959.212, 1269.669 959, 1261.931 959 L 1247.861 959 1242.504 970.358 C 1231.386 993.928, 1219.421 1026.731, 1215.480 1044.445 C 1213.998 1051.108, 1213.136 1052.867, 1209.489 1056.673 C 1205.450 1060.888, 1204.976 1061.103, 1200.364 1060.809 L 1195.500 1060.500 1195.197 1055.797 C 1194.969 1052.251, 1196.055 1047.696, 1199.609 1037.297 C 1203.480 1025.970, 1204.403 1021.889, 1204.764 1014.500 C 1205.164 1006.291, 1205.004 1005.248, 1202.934 1002.629 C 1199.453 998.226, 1194.794 996.836, 1180.500 995.937 C 1165.665 995.005, 1161.309 993.972, 1157.031 990.373 C 1153.347 987.273, 1153.044 983.283, 1156.114 978.315 C 1157.277 976.434, 1158.064 974.771, 1157.864 974.619 C 1156.931 973.913, 1127.639 969.105, 1126.932 969.542 C 1126.491 969.815, 1125.160 972.617, 1123.975 975.769 C 1119.647 987.283, 1122.611 998.871, 1131.410 1004.826 L 1134.846 1007.152 1131.860 1014.326 C 1126.920 1026.193, 1117.385 1045.229, 1114.182 1049.620 C 1106.226 1060.524, 1076.832 1065.059, 1067.458 1056.829 C 1065.556 1055.159, 1064 1053.460, 1064 1053.054 C 1064 1052.648, 1067.621 1051.602, 1072.046 1050.730 C 1081.967 1048.776, 1091.023 1044.593, 1097.166 1039.128 C 1103.637 1033.372, 1106 1028.093, 1106 1019.390 C 1106 1013.303, 1105.585 1011.715, 1102.750 1006.956 C 1098.095 999.142, 1092.518 996.477, 1081 996.563 C 1070.079 996.645, 1061.506 999.460, 1052.134 1006.042 C 1039.617 1014.832, 1029.658 1030.096, 1026.190 1045.804 C 1024.788 1052.154, 1023.862 1054.099, 1020.750 1057.229 C 1017.644 1060.353, 1016.305 1061, 1012.949 1061 C 1009.238 1061, 1008.771 1060.696, 1007.383 1057.374 C 1004.738 1051.045, 1007.570 1034.597, 1016.056 1007 C 1019.162 996.900, 1029.169 968.731, 1032.486 960.750 C 1033.160 959.130, 1032.146 959.002, 1018.857 959.026 L 1004.500 959.051 1000.542 967.776 M 737.427 997.400 C 728.528 999.098, 722.498 1001.756, 714.345 1007.573 C 686.394 1027.519, 681.379 1073.214, 705.337 1089.651 C 712.058 1094.262, 716.926 1095.478, 728.500 1095.436 C 741.421 1095.390, 750.157 1092.790, 760.391 1085.945 C 778.165 1074.057, 789.022 1054.560, 788.988 1034.590 C 788.958 1016.706, 780.309 1003.310, 765.757 998.611 C 758.708 996.334, 745.889 995.786, 737.427 997.400 M 743.500 1015.866 C 734.316 1020.048, 726.751 1032.658, 726.648 1043.956 C 726.543 1055.448, 732.013 1061, 743.441 1061 C 750.803 1061, 755.863 1058.379, 760.966 1051.924 C 765.698 1045.938, 767.323 1040.819, 767.293 1032 C 767.253 1019.941, 762.355 1013.990, 752.500 1014.026 C 749.750 1014.036, 745.700 1014.864, 743.500 1015.866 M 969 1014.796 C 959.146 1019.418, 947.055 1040.459, 947.017 1053.050 C 946.998 1059.182, 948.129 1061.003, 951.950 1060.993 C 957.919 1060.978, 964.806 1053.422, 971.542 1039.500 C 976.434 1029.387, 978.306 1022.959, 977.826 1017.920 C 977.527 1014.787, 977.206 1014.483, 974 1014.296 C 972.075 1014.184, 969.825 1014.409, 969 1014.796 M 1079.206 1015.669 C 1073.051 1018.702, 1063 1032.873, 1063 1038.518 C 1063 1042.619, 1079.095 1035.744, 1085.484 1028.913 C 1089.218 1024.922, 1090 1023.420, 1090 1020.243 C 1090 1018.129, 1089.460 1015.860, 1088.800 1015.200 C 1087.141 1013.541, 1083.126 1013.737, 1079.206 1015.669 M 1323.500 1015.135 C 1313.468 1020.779, 1302 1041.149, 1302 1053.323 C 1302 1059.474, 1303.146 1061, 1307.765 1061 C 1313.131 1061, 1319.838 1053.313, 1326.713 1039.282 C 1331.781 1028.941, 1332.360 1027.099, 1332.426 1021.136 L 1332.500 1014.500 1329 1014.255 C 1327.075 1014.120, 1324.600 1014.516, 1323.500 1015.135 M 1554 1014.796 C 1544.146 1019.418, 1532.055 1040.459, 1532.017 1053.050 C 1531.998 1059.182, 1533.129 1061.003, 1536.950 1060.993 C 1542.919 1060.978, 1549.806 1053.422, 1556.542 1039.500 C 1561.434 1029.387, 1563.306 1022.959, 1562.826 1017.920 C 1562.527 1014.787, 1562.206 1014.483, 1559 1014.296 C 1557.075 1014.184, 1554.825 1014.409, 1554 1014.796" stroke="none" fill="#ffffff" fill-rule="evenodd"/><path d="M 652.286 885.451 C 639.300 889.509, 629.864 899.583, 625.610 913.932 C 623.602 920.704, 623.569 926.187, 625.497 932.679 C 628.349 942.281, 639.815 950, 651.228 950 C 654.550 950, 655.332 949.552, 656.797 946.813 C 659.951 940.911, 662.647 938.849, 666.764 939.190 L 670.500 939.500 670.438 954 C 670.383 966.949, 670.028 969.874, 667.120 981.342 C 663.217 996.737, 658.718 1008.822, 651.562 1023.136 C 646.799 1032.662, 637.617 1048, 636.677 1048 C 636.477 1048, 637.533 1043.162, 639.023 1037.250 C 646.513 1007.527, 648.372 963.488, 642.414 956.905 C 640.804 955.126, 638.992 955, 615 955 C 591.382 955, 589.176 955.147, 587.655 956.829 C 586.745 957.835, 586 958.968, 586 959.348 C 586 962.639, 558.236 1033.569, 557.310 1032.644 C 557.090 1032.423, 557.829 1027.801, 558.953 1022.371 C 563.957 998.196, 563.794 974.859, 558.483 955.094 C 555.519 944.065, 552.747 938.629, 545.675 929.978 C 539.451 922.363, 531.063 916.711, 521.542 913.715 C 515.473 911.806, 512.289 911.504, 498.500 911.531 C 483.820 911.559, 481.840 911.784, 474.500 914.255 C 463.115 918.088, 454.626 923.374, 446 932 C 432.374 945.626, 424.706 962.881, 423.319 983.035 C 422.161 999.862, 427.280 1015.073, 437.691 1025.739 C 448.574 1036.888, 466.651 1040.629, 485.500 1035.631 C 503.600 1030.832, 514.947 1016.470, 514.988 998.307 C 515.003 991.733, 512.820 989.789, 506.408 990.668 C 504.061 990.989, 500.985 990.962, 499.571 990.607 C 497.439 990.072, 497 989.380, 497 986.552 C 497 981.913, 499.197 980, 504.524 980 C 514.454 980, 517.417 984.633, 517.172 999.778 C 516.990 1010.971, 514.513 1022.025, 505.022 1054 C 490.173 1104.025, 490.722 1119.220, 507.549 1123.892 C 512.935 1125.387, 522.433 1125.260, 528.632 1123.610 C 546.593 1118.827, 565.944 1100.386, 580.951 1073.750 C 582.733 1070.588, 584.285 1068, 584.400 1068 C 584.516 1068, 583.593 1072.133, 582.351 1077.184 C 578.698 1092.034, 577.449 1103.959, 578.877 1110.339 C 582.409 1126.123, 600.587 1129.494, 623.500 1118.612 C 643.939 1108.906, 662.433 1088.200, 684.939 1049.825 C 686.442 1047.262, 686.493 1047.483, 686.148 1055.081 C 685.730 1064.288, 687.986 1075.311, 691.580 1081.614 C 695.001 1087.615, 702.756 1094.929, 708.551 1097.620 C 723.396 1104.511, 745.479 1102.499, 761.847 1092.762 C 768.905 1088.563, 780.793 1076.912, 784.562 1070.500 L 787.500 1065.500 788.113 1073.500 C 788.820 1082.737, 790.437 1087.150, 795.030 1092.382 C 799.184 1097.113, 803.941 1099.539, 811.893 1100.981 C 823.365 1103.061, 822.177 1104.311, 836.868 1074.683 C 849.187 1049.838, 861.020 1029.895, 866.050 1025.500 L 868.339 1023.500 867.516 1025.500 C 863.615 1034.981, 856.044 1055.692, 854.657 1060.675 C 850.380 1076.045, 851.850 1088.085, 858.860 1095.095 C 868.401 1104.636, 890.904 1103.845, 906.186 1093.431 L 912.873 1088.874 917.686 1093.844 C 923.409 1099.752, 928.129 1101.423, 939 1101.391 C 948.050 1101.363, 954.763 1098.759, 962.932 1092.105 C 966.874 1088.894, 968.513 1088.055, 968.839 1089.081 C 969.088 1089.861, 971.363 1092.585, 973.895 1095.133 C 977.733 1098.993, 979.500 1099.975, 984.500 1101.024 C 996.061 1103.451, 1010.118 1099.200, 1021.890 1089.718 L 1027.281 1085.376 1032.155 1090.250 C 1034.835 1092.930, 1039.428 1096.222, 1042.360 1097.564 C 1058.384 1104.901, 1085.829 1102.179, 1103.056 1091.546 C 1106.216 1089.596, 1109.678 1088, 1110.749 1088 C 1113.122 1088, 1121.660 1079.179, 1129.282 1068.853 C 1135.879 1059.915, 1147.367 1040.246, 1153.322 1027.693 L 1157.500 1018.885 1162.949 1019.475 C 1165.946 1019.799, 1168.562 1020.229, 1168.763 1020.429 C 1168.964 1020.630, 1166.442 1027.703, 1163.160 1036.147 C 1155.202 1056.619, 1152.966 1064.124, 1152.295 1072.609 C 1151.245 1085.882, 1155.922 1095.751, 1164.981 1099.376 C 1171.402 1101.945, 1181.475 1102.442, 1189.397 1100.581 C 1196.609 1098.886, 1206.733 1094.057, 1209.514 1090.984 C 1211.059 1089.277, 1211.400 1089.453, 1216.320 1094.493 C 1220.816 1099.097, 1222.293 1099.962, 1227.500 1101.041 C 1238.326 1103.284, 1253.527 1099.088, 1263.388 1091.135 C 1265.526 1089.411, 1267.551 1088.003, 1267.888 1088.006 C 1268.224 1088.010, 1269.249 1089.329, 1270.164 1090.938 C 1272.882 1095.715, 1279.251 1099.632, 1286.533 1101.006 C 1297.036 1102.988, 1307.052 1100.609, 1315.645 1094.091 L 1320.791 1090.189 1324.145 1093.721 C 1333.098 1103.145, 1349.378 1104.394, 1364.459 1096.814 C 1367.736 1095.166, 1371.734 1092.788, 1373.344 1091.528 L 1376.270 1089.238 1379.290 1092.678 C 1383.191 1097.120, 1388.076 1099.563, 1395.893 1100.981 C 1407.365 1103.061, 1406.177 1104.311, 1420.868 1074.683 C 1433.187 1049.838, 1445.020 1029.895, 1450.050 1025.500 L 1452.339 1023.500 1451.516 1025.500 C 1447.615 1034.981, 1440.044 1055.692, 1438.657 1060.675 C 1434.380 1076.045, 1435.850 1088.085, 1442.860 1095.095 C 1452.534 1104.769, 1475.040 1103.857, 1490.505 1093.166 L 1497.509 1088.323 1502.505 1093.580 C 1508.409 1099.795, 1512.893 1101.424, 1524 1101.391 C 1533.050 1101.363, 1539.763 1098.759, 1547.932 1092.105 C 1551.874 1088.894, 1553.513 1088.055, 1553.839 1089.081 C 1554.088 1089.861, 1556.363 1092.581, 1558.895 1095.124 C 1563.653 1099.901, 1569.541 1102.082, 1577.299 1101.942 C 1582.994 1101.840, 1593.515 1098.536, 1599.493 1094.974 C 1607.245 1090.355, 1618.300 1079.133, 1621.445 1072.691 C 1626.709 1061.908, 1625.528 1052.372, 1618.568 1049.464 C 1612.648 1046.991, 1610.255 1047.554, 1605.382 1052.568 C 1602.721 1055.306, 1600.253 1056.995, 1599.221 1056.783 C 1593.341 1055.580, 1603.832 1012.811, 1620.104 971.644 C 1624.439 960.677, 1624.716 958.859, 1622.405 956.548 C 1621.049 955.192, 1618.317 954.994, 1604.185 955.226 L 1587.561 955.500 1585.310 959.500 C 1584.071 961.700, 1580.031 970.349, 1576.331 978.719 C 1569.803 993.489, 1569.529 993.917, 1567.052 993.219 C 1565.648 992.824, 1560 992.508, 1554.500 992.517 C 1542.052 992.539, 1534.142 995.014, 1524.191 1002.002 C 1512.160 1010.451, 1500.557 1027.797, 1496.045 1044.080 C 1493.628 1052.803, 1490.640 1056.951, 1486.750 1056.985 C 1484.216 1057.007, 1484.504 1055.187, 1489.419 1040.081 C 1495.029 1022.841, 1496.431 1015.609, 1495.544 1008.508 C 1494.206 997.799, 1485.066 992, 1469.529 992 C 1459.374 992, 1448.773 995.164, 1436.919 1001.732 C 1436.600 1001.909, 1436.541 1000.674, 1436.789 998.987 C 1437.087 996.952, 1436.642 995.262, 1435.464 993.961 C 1433.844 992.170, 1432.314 992, 1417.845 992 C 1403.393 992, 1401.826 992.174, 1400.022 993.978 C 1396.561 997.439, 1381.501 1029.142, 1377.426 1041.543 C 1373.384 1053.847, 1371.461 1057, 1368 1057 C 1366.280 1057, 1366.001 1056.336, 1366.007 1052.250 C 1366.020 1043.493, 1373.181 1019.797, 1380.891 1003 C 1383.470 997.380, 1383.481 996.481, 1381 994 C 1379.168 992.168, 1377.667 992, 1363.155 992 C 1349.032 992, 1347.129 992.200, 1345.643 993.842 C 1344.029 995.626, 1343.809 995.627, 1338.738 993.875 C 1332.322 991.658, 1325.576 991.541, 1315.494 993.470 C 1301.726 996.104, 1291.592 1002.525, 1280.987 1015.335 C 1275.142 1022.395, 1268.032 1036.491, 1265.519 1046 C 1263.695 1052.899, 1260.827 1057, 1257.826 1057 C 1255.807 1057, 1255.664 1056.268, 1255.972 1047.500 C 1256.374 1036.055, 1266.818 1000.465, 1277.563 973.928 C 1285.320 954.772, 1285.393 954.863, 1262.639 955.227 L 1245.561 955.500 1243.303 959.500 C 1234.702 974.736, 1218.704 1016.907, 1213.207 1038.834 C 1210.201 1050.828, 1206.718 1057, 1202.957 1057 C 1200.068 1057, 1200.426 1054.420, 1205.438 1039.081 C 1212.373 1017.862, 1213.130 1007.205, 1208.197 1000.276 C 1204.246 994.728, 1198.989 993.039, 1182.673 992.076 C 1171.858 991.438, 1167.131 990.739, 1164.305 989.359 C 1159.867 987.191, 1159.041 984.406, 1161.920 981.316 C 1164.984 978.027, 1165.510 974.510, 1163.272 972.272 C 1160.969 969.969, 1130.808 964.329, 1126.532 965.403 C 1121.661 966.625, 1116.149 982.708, 1117.587 991.500 C 1118.515 997.171, 1122.487 1004.561, 1126.003 1007.160 C 1127.651 1008.379, 1129 1009.930, 1129 1010.606 C 1129 1012.629, 1118.683 1034.984, 1114.277 1042.507 C 1111.894 1046.575, 1108.893 1050.253, 1107.101 1051.300 C 1100.550 1055.130, 1092.929 1057.001, 1084.093 1056.951 L 1075.500 1056.902 1083.821 1054.056 C 1096.966 1049.560, 1108.487 1039.332, 1111.025 1029.906 C 1114.878 1015.598, 1109.359 1000.779, 1098.121 995.261 C 1093.134 992.811, 1091.428 992.508, 1083 992.569 C 1068.254 992.677, 1058.662 996.090, 1047.279 1005.280 C 1035.885 1014.478, 1026.977 1028.087, 1023.570 1041.500 C 1022.592 1045.350, 1021.319 1049.772, 1020.742 1051.327 C 1019.484 1054.718, 1015.647 1057.462, 1013.380 1056.592 C 1008.434 1054.694, 1019.717 1010.570, 1035.104 971.644 C 1039.439 960.677, 1039.716 958.859, 1037.405 956.548 C 1036.049 955.192, 1033.317 954.994, 1019.185 955.226 L 1002.561 955.500 1000.310 959.500 C 999.071 961.700, 995.031 970.349, 991.331 978.719 C 984.803 993.489, 984.529 993.917, 982.052 993.219 C 980.648 992.824, 975 992.508, 969.500 992.517 C 957.052 992.539, 949.142 995.014, 939.191 1002.002 C 926.850 1010.668, 914.547 1029.485, 910.546 1045.813 C 908.728 1053.232, 906.173 1057, 902.961 1057 C 900.190 1057, 900.413 1055.465, 905.419 1040.081 C 911.029 1022.841, 912.431 1015.609, 911.544 1008.508 C 910.206 997.799, 901.066 992, 885.529 992 C 875.374 992, 864.773 995.164, 852.919 1001.732 C 852.600 1001.909, 852.541 1000.674, 852.789 998.987 C 853.087 996.952, 852.642 995.262, 851.464 993.961 C 849.846 992.172, 848.315 992, 834.036 992 C 823.016 992, 817.918 992.370, 816.815 993.250 C 813.648 995.775, 807.928 1006.832, 796.251 1033 C 795.147 1035.474, 795.135 1035.466, 795.068 1032.197 C 794.830 1020.613, 788.779 1007.579, 780.631 1001.104 C 772.156 994.369, 756.533 991.076, 742.140 992.991 C 726.884 995.021, 716.286 1000.051, 705.945 1010.170 L 700.150 1015.839 702.599 1009.332 C 706.406 999.219, 711.743 977.678, 713.584 965 C 714.820 956.489, 715.101 949.991, 714.666 940 C 713.775 919.571, 710.944 910.434, 701.998 899.117 C 693.851 888.810, 682.284 883.955, 666.145 884.067 C 660.840 884.104, 654.604 884.726, 652.286 885.451 M 653.500 889.329 C 643.951 892.484, 637.442 897.825, 632.979 906.166 C 630.005 911.726, 629.541 913.604, 629.186 921.529 C 628.783 930.502, 628.801 930.584, 632.155 934.981 C 636.353 940.484, 640.407 942.906, 646.665 943.647 C 651.464 944.215, 651.545 944.178, 653.249 940.604 C 655.542 935.795, 660.282 933.008, 666.177 933.004 C 670.042 933.001, 671.215 933.458, 672.927 935.635 C 674.742 937.942, 675 939.653, 674.999 949.385 C 674.996 971.613, 668.377 997.039, 655.966 1022.500 C 648.023 1038.794, 639.552 1051.315, 629.407 1061.758 L 620.915 1070.500 623.339 1065.500 C 629.528 1052.730, 635.884 1027.667, 638.555 1005.500 C 640.216 991.709, 640.224 962.790, 638.567 960.109 C 638.097 959.347, 630.453 959, 614.177 959 L 590.471 959 581.059 984.250 C 563.553 1031.213, 553.539 1052.211, 543.007 1064.040 L 538.145 1069.500 541.728 1060.500 C 546.603 1048.256, 550.572 1034.127, 553.665 1018 C 555.769 1007.030, 556.266 1001.408, 556.321 988 C 556.361 978.449, 555.855 968.763, 555.120 965 C 550.067 939.127, 538.287 923.920, 518.500 917.725 C 512.820 915.947, 509.049 915.531, 498.500 915.517 C 483.411 915.497, 477.719 916.659, 466.500 922.047 C 449.479 930.221, 437.444 944.441, 431.109 963.864 C 424.937 982.789, 427.033 1004.044, 436.314 1016.631 C 441.105 1023.128, 446.672 1027.432, 453.187 1029.677 C 463.331 1033.171, 479.311 1032.242, 489.620 1027.557 C 500.727 1022.509, 507.781 1012.592, 508.737 1000.683 L 509.245 994.355 503.373 994.732 C 498.739 995.031, 496.814 994.680, 494.250 993.070 C 491.353 991.251, 491 990.531, 491 986.449 C 491 977.721, 494.643 974.055, 503.349 974.022 C 511.057 973.993, 515.545 976.188, 518.128 981.251 C 524.208 993.168, 521.947 1010.500, 508.510 1055 C 495.646 1097.603, 494.910 1112.330, 505.406 1117.097 C 510.752 1119.525, 521.705 1119.555, 528.632 1117.161 C 551.456 1109.272, 570.755 1084.533, 595.986 1030.819 C 599.004 1024.395, 601.642 1019.308, 601.849 1019.516 C 602.491 1020.157, 599.995 1029.648, 593.307 1052 C 582.950 1086.616, 580.299 1102.258, 583.410 1110.403 C 585.973 1117.115, 588.759 1118.509, 599.500 1118.454 C 606.846 1118.417, 609.654 1117.931, 614.779 1115.809 C 624.756 1111.678, 631.683 1107.079, 640.676 1098.616 C 680.226 1061.395, 710.816 989.602, 708.686 939 C 707.790 917.717, 704.297 908.193, 693.832 898.505 C 686.155 891.397, 679.448 888.866, 667 888.379 C 660.850 888.138, 656.089 888.473, 653.500 889.329 M 1000.542 967.776 C 996.571 976.528, 987.257 997.804, 986.743 999.297 C 986.592 999.735, 984.901 999.442, 982.984 998.644 C 974.654 995.180, 962.236 995.669, 950.958 999.906 C 935.499 1005.714, 919.442 1026.121, 914.236 1046.574 C 911.634 1056.801, 907.774 1061, 900.977 1061 C 893.553 1061, 893.265 1056.909, 899.403 1038.620 C 906.807 1016.557, 907.664 1007.481, 902.832 1002.307 C 899.348 998.577, 895.949 997.150, 888.879 996.452 C 873.870 994.968, 856.414 1002.050, 842.187 1015.393 L 838.874 1018.500 841.843 1010.500 C 843.476 1006.100, 845.304 1001.233, 845.906 999.685 C 846.508 998.137, 847 996.674, 847 996.435 C 847 996.196, 840.720 996, 833.044 996 L 819.088 996 814.905 1003.163 C 808.036 1014.924, 801.350 1029.726, 796.927 1042.966 C 793.476 1053.296, 792.673 1057.191, 792.239 1065.698 C 791.814 1074.013, 792.050 1076.843, 793.480 1080.587 C 796.996 1089.792, 803.250 1094.307, 814.286 1095.604 L 819.576 1096.225 825.883 1082.363 C 843.416 1043.832, 861.649 1016.220, 870.766 1014.397 C 873.774 1013.795, 874 1013.939, 874 1016.456 C 874 1017.945, 871.480 1025.538, 868.401 1033.331 C 860.121 1054.282, 857.119 1063.856, 856.410 1071.579 C 855.155 1085.230, 859.691 1092.756, 870.529 1095.006 C 883.517 1097.702, 897.308 1093.548, 908.711 1083.503 L 913.922 1078.913 916.412 1083.826 C 919.637 1090.190, 923.641 1093.475, 930.052 1095.012 C 941.191 1097.685, 952.227 1093.831, 962.876 1083.549 L 969.601 1077.057 970.794 1081.519 C 973.133 1090.264, 981.030 1096, 990.733 1096 C 1000.154 1096, 1012.645 1090.051, 1021.787 1081.211 C 1024.795 1078.303, 1027.346 1076.053, 1027.455 1076.211 C 1027.564 1076.370, 1028.667 1078.187, 1029.908 1080.250 C 1037.213 1092.397, 1053.918 1097.997, 1074.063 1095.051 C 1084.578 1093.514, 1093.121 1090.312, 1101.950 1084.601 C 1105.758 1082.137, 1109.032 1080.595, 1109.225 1081.174 C 1109.849 1083.048, 1121.172 1069.795, 1128.626 1058.465 C 1132.618 1052.396, 1139.808 1039.796, 1144.603 1030.465 C 1149.398 1021.134, 1153.423 1013.363, 1153.547 1013.196 C 1153.672 1013.029, 1158.373 1013.210, 1163.993 1013.597 L 1174.213 1014.301 1173.681 1017.581 C 1173.388 1019.386, 1170.197 1028.297, 1166.591 1037.384 C 1158.396 1058.031, 1156 1066.604, 1156 1075.280 C 1156 1085.928, 1159.907 1092.004, 1168.373 1094.518 C 1181.016 1098.273, 1194.730 1094.773, 1207.209 1084.607 L 1212.794 1080.058 1215.422 1085.431 C 1218.504 1091.730, 1221.161 1093.720, 1228.567 1095.273 C 1238.780 1097.416, 1252.474 1092.596, 1263.078 1083.128 L 1268.655 1078.147 1271.271 1083.479 C 1274.493 1090.050, 1278.966 1093.585, 1285.954 1095.083 C 1296.012 1097.241, 1305.756 1094.189, 1316.253 1085.595 L 1322.006 1080.885 1323.067 1083.693 C 1323.650 1085.237, 1325.336 1087.778, 1326.814 1089.339 C 1331.482 1094.273, 1334.727 1095.426, 1344.052 1095.465 C 1351.940 1095.497, 1353.187 1095.212, 1360.122 1091.784 C 1364.258 1089.740, 1369.727 1086.232, 1372.277 1083.988 L 1376.912 1079.907 1378.859 1083.704 C 1382.536 1090.875, 1388.328 1094.433, 1398.214 1095.595 L 1403.576 1096.225 1409.883 1082.363 C 1427.416 1043.832, 1445.649 1016.220, 1454.766 1014.397 C 1457.774 1013.795, 1458 1013.939, 1458 1016.456 C 1458 1017.945, 1455.480 1025.538, 1452.401 1033.331 C 1444.121 1054.282, 1441.119 1063.856, 1440.410 1071.579 C 1439.155 1085.230, 1443.691 1092.756, 1454.529 1095.006 C 1467.726 1097.746, 1481.471 1093.507, 1493.103 1083.110 L 1498.706 1078.102 1501.061 1083.130 C 1504.134 1089.692, 1508.552 1093.453, 1515.002 1095 C 1526.194 1097.685, 1537.207 1093.849, 1547.876 1083.549 L 1554.601 1077.057 1555.794 1081.519 C 1560.274 1098.270, 1580.766 1100.619, 1600.371 1086.629 C 1614.655 1076.436, 1623.021 1060.021, 1617 1054 C 1613.932 1050.932, 1611.240 1051.570, 1606.448 1056.500 C 1602.671 1060.386, 1601.517 1061, 1597.986 1061 C 1594.232 1061, 1593.774 1060.704, 1592.383 1057.374 C 1589.738 1051.045, 1592.570 1034.597, 1601.056 1007 C 1604.162 996.900, 1614.169 968.731, 1617.486 960.750 C 1618.160 959.130, 1617.146 959.002, 1603.857 959.026 L 1589.500 959.051 1585.542 967.776 C 1581.571 976.528, 1572.257 997.804, 1571.743 999.297 C 1571.592 999.735, 1569.901 999.442, 1567.984 998.644 C 1555.516 993.458, 1536.625 996.986, 1524.482 1006.768 C 1512.914 1016.088, 1503.987 1030.040, 1499.063 1046.500 C 1496.091 1056.434, 1491.655 1061, 1484.977 1061 C 1477.553 1061, 1477.265 1056.909, 1483.403 1038.620 C 1490.807 1016.557, 1491.664 1007.481, 1486.832 1002.307 C 1483.348 998.577, 1479.949 997.150, 1472.879 996.452 C 1457.870 994.968, 1440.414 1002.050, 1426.187 1015.393 L 1422.874 1018.500 1425.843 1010.500 C 1427.476 1006.100, 1429.304 1001.233, 1429.906 999.685 C 1430.508 998.137, 1431 996.674, 1431 996.435 C 1431 996.196, 1424.720 996, 1417.044 996 L 1403.088 996 1398.905 1003.163 C 1392.184 1014.671, 1385.386 1029.630, 1381.216 1042.091 C 1377.078 1054.454, 1375.919 1056.625, 1372.027 1059.300 C 1369.169 1061.266, 1362.953 1061.553, 1361.200 1059.800 C 1357.503 1056.103, 1361.907 1033.813, 1370.939 1010.500 C 1373.710 1003.350, 1375.982 997.163, 1375.988 996.750 C 1375.995 996.337, 1369.802 996, 1362.227 996 L 1348.455 996 1346.606 999.434 L 1344.757 1002.867 1341.086 1000.438 C 1333.972 995.730, 1321.174 995.017, 1309.500 998.678 C 1291.634 1004.281, 1275.457 1023.619, 1269.079 1047 C 1266.497 1056.463, 1262.275 1061, 1256.050 1061 C 1250.821 1061, 1249.755 1058.932, 1249.899 1049.069 C 1250.087 1036.208, 1257.960 1007.762, 1270.613 974.222 C 1273.576 966.368, 1276 959.731, 1276 959.472 C 1276 959.212, 1269.669 959, 1261.931 959 L 1247.861 959 1242.504 970.358 C 1231.386 993.928, 1219.421 1026.731, 1215.480 1044.445 C 1213.998 1051.108, 1213.136 1052.867, 1209.489 1056.673 C 1205.450 1060.888, 1204.976 1061.103, 1200.364 1060.809 L 1195.500 1060.500 1195.197 1055.797 C 1194.969 1052.251, 1196.055 1047.696, 1199.609 1037.297 C 1203.480 1025.970, 1204.403 1021.889, 1204.764 1014.500 C 1205.164 1006.291, 1205.004 1005.248, 1202.934 1002.629 C 1199.453 998.226, 1194.794 996.836, 1180.500 995.937 C 1165.665 995.005, 1161.309 993.972, 1157.031 990.373 C 1153.347 987.273, 1153.044 983.283, 1156.114 978.315 C 1157.277 976.434, 1158.064 974.771, 1157.864 974.619 C 1156.931 973.913, 1127.639 969.105, 1126.932 969.542 C 1126.491 969.815, 1125.160 972.617, 1123.975 975.769 C 1119.647 987.283, 1122.611 998.871, 1131.410 1004.826 L 1134.846 1007.152 1131.860 1014.326 C 1126.920 1026.193, 1117.385 1045.229, 1114.182 1049.620 C 1106.226 1060.524, 1076.832 1065.059, 1067.458 1056.829 C 1065.556 1055.159, 1064 1053.460, 1064 1053.054 C 1064 1052.648, 1067.621 1051.602, 1072.046 1050.730 C 1081.967 1048.776, 1091.023 1044.593, 1097.166 1039.128 C 1103.637 1033.372, 1106 1028.093, 1106 1019.390 C 1106 1013.303, 1105.585 1011.715, 1102.750 1006.956 C 1098.095 999.142, 1092.518 996.477, 1081 996.563 C 1070.079 996.645, 1061.506 999.460, 1052.134 1006.042 C 1039.617 1014.832, 1029.658 1030.096, 1026.190 1045.804 C 1024.788 1052.154, 1023.862 1054.099, 1020.750 1057.229 C 1017.644 1060.353, 1016.305 1061, 1012.949 1061 C 1009.238 1061, 1008.771 1060.696, 1007.383 1057.374 C 1004.738 1051.045, 1007.570 1034.597, 1016.056 1007 C 1019.162 996.900, 1029.169 968.731, 1032.486 960.750 C 1033.160 959.130, 1032.146 959.002, 1018.857 959.026 L 1004.500 959.051 1000.542 967.776 M 737.427 997.400 C 728.528 999.098, 722.498 1001.756, 714.345 1007.573 C 686.394 1027.519, 681.379 1073.214, 705.337 1089.651 C 712.058 1094.262, 716.926 1095.478, 728.500 1095.436 C 741.421 1095.390, 750.157 1092.790, 760.391 1085.945 C 778.165 1074.057, 789.022 1054.560, 788.988 1034.590 C 788.958 1016.706, 780.309 1003.310, 765.757 998.611 C 758.708 996.334, 745.889 995.786, 737.427 997.400 M 743.500 1015.866 C 734.316 1020.048, 726.751 1032.658, 726.648 1043.956 C 726.543 1055.448, 732.013 1061, 743.441 1061 C 750.803 1061, 755.863 1058.379, 760.966 1051.924 C 765.698 1045.938, 767.323 1040.819, 767.293 1032 C 767.253 1019.941, 762.355 1013.990, 752.500 1014.026 C 749.750 1014.036, 745.700 1014.864, 743.500 1015.866 M 969 1014.796 C 959.146 1019.418, 947.055 1040.459, 947.017 1053.050 C 946.998 1059.182, 948.129 1061.003, 951.950 1060.993 C 957.919 1060.978, 964.806 1053.422, 971.542 1039.500 C 976.434 1029.387, 978.306 1022.959, 977.826 1017.920 C 977.527 1014.787, 977.206 1014.483, 974 1014.296 C 972.075 1014.184, 969.825 1014.409, 969 1014.796 M 1079.206 1015.669 C 1073.051 1018.702, 1063 1032.873, 1063 1038.518 C 1063 1042.619, 1079.095 1035.744, 1085.484 1028.913 C 1089.218 1024.922, 1090 1023.420, 1090 1020.243 C 1090 1018.129, 1089.460 1015.860, 1088.800 1015.200 C 1087.141 1013.541, 1083.126 1013.737, 1079.206 1015.669 M 1323.500 1015.135 C 1313.468 1020.779, 1302 1041.149, 1302 1053.323 C 1302 1059.474, 1303.146 1061, 1307.765 1061 C 1313.131 1061, 1319.838 1053.313, 1326.713 1039.282 C 1331.781 1028.941, 1332.360 1027.099, 1332.426 1021.136 L 1332.500 1014.500 1329 1014.255 C 1327.075 1014.120, 1324.600 1014.516, 1323.500 1015.135 M 1554 1014.796 C 1544.146 1019.418, 1532.055 1040.459, 1532.017 1053.050 C 1531.998 1059.182, 1533.129 1061.003, 1536.950 1060.993 C 1542.919 1060.978, 1549.806 1053.422, 1556.542 1039.500 C 1561.434 1029.387, 1563.306 1022.959, 1562.826 1017.920 C 1562.527 1014.787, 1562.206 1014.483, 1559 1014.296 C 1557.075 1014.184, 1554.825 1014.409, 1554 1014.796 M 745.457 1021.863 C 732.781 1029.593, 727.745 1051.373, 737.595 1055.861 C 741.873 1057.810, 749.312 1057.264, 753.081 1054.724 C 763.239 1047.879, 767.160 1029.160, 759.947 1021.947 C 757.361 1019.361, 749.634 1019.316, 745.457 1021.863 M 969.657 1021.887 C 963.048 1026.245, 953 1045.095, 953 1053.138 C 953 1057.517, 953.143 1057.608, 956.536 1055.384 C 962.987 1051.157, 977.723 1019.967, 973.250 1020.007 C 972.837 1020.010, 971.221 1020.857, 969.657 1021.887 M 1081.280 1021.971 C 1078.203 1023.847, 1072 1031.337, 1072 1033.176 C 1072 1034.656, 1078.291 1030.980, 1082.250 1027.187 C 1084.313 1025.211, 1086 1022.785, 1086 1021.797 C 1086 1019.517, 1085.260 1019.544, 1081.280 1021.971 M 1324.979 1021.727 C 1320.656 1024.755, 1318.094 1028.271, 1313.349 1037.686 C 1308.538 1047.230, 1306.352 1057, 1309.028 1057 C 1313.377 1057, 1327.462 1033.430, 1328.721 1024.044 C 1329.320 1019.578, 1328.645 1019.160, 1324.979 1021.727 M 1554.657 1021.887 C 1548.048 1026.245, 1538 1045.095, 1538 1053.138 C 1538 1057.517, 1538.143 1057.608, 1541.536 1055.384 C 1547.987 1051.157, 1562.723 1019.967, 1558.250 1020.007 C 1557.838 1020.010, 1556.221 1020.857, 1554.657 1021.887" stroke="none" fill="#83ffe1" fill-rule="evenodd"/></svg>