<svg width="21" height="21" viewBox="0 0 21 21" fill="none" xmlns="http://www.w3.org/2000/svg">
<g clip-path="url(#clip0_5_102)">
<path d="M2.51586 2.87033H17.611C17.8334 2.87033 18.0467 2.95868 18.204 3.11596C18.3612 3.27323 18.4496 3.48653 18.4496 3.70895V17.1268C18.4496 17.3492 18.3612 17.5625 18.204 17.7198C18.0467 17.8771 17.8334 17.9654 17.611 17.9654H2.51586C2.29345 17.9654 2.08014 17.8771 1.92287 17.7198C1.7656 17.5625 1.67725 17.3492 1.67725 17.1268V3.70895C1.67725 3.48653 1.7656 3.27323 1.92287 3.11596C2.08014 2.95868 2.29345 2.87033 2.51586 2.87033ZM10.1137 10.152L4.73652 5.58577L3.65051 6.86382L10.1246 12.361L16.4822 6.85963L15.3853 5.5908L10.1146 10.152H10.1137Z" fill="white"/>
</g>
<defs>
<clipPath id="clip0_5_102">
<rect width="20.1268" height="20.1268" fill="white" transform="translate(0 0.354492)"/>
</clipPath>
</defs>
</svg>
