<svg width="15" height="19" viewBox="0 0 15 19" fill="none" xmlns="http://www.w3.org/2000/svg">
<path d="M7.28858 11.6217C8.89624 11.6217 10.1843 10.3239 10.1843 8.71624L10.194 2.90541C10.194 1.29775 8.89624 0 7.28858 0C5.68091 0 4.38316 1.29775 4.38316 2.90541V8.71624C4.38316 10.3239 5.68091 11.6217 7.28858 11.6217ZM12.4215 8.71624C12.4215 11.6217 9.96156 13.6554 7.28858 13.6554C4.61559 13.6554 2.15568 11.6217 2.15568 8.71624H0.509277C0.509277 12.0284 3.14352 14.7498 6.3201 15.2244V18.4009H8.25705V15.2244C11.4336 14.7595 14.0679 12.0284 14.0679 8.71624H12.4215Z" fill="white"/>
</svg>
