<svg width="21" height="21" viewBox="0 0 21 21" fill="none" xmlns="http://www.w3.org/2000/svg">
<g clip-path="url(#clip0_5_105)">
<path d="M17.7865 14.1246V17.0899C17.7866 17.3022 17.7062 17.5067 17.5614 17.662C17.4167 17.8173 17.2184 17.912 17.0066 17.9269C16.6401 17.952 16.3407 17.9654 16.1093 17.9654C8.69842 17.9654 2.69141 11.9584 2.69141 4.54756C2.69141 4.31611 2.70399 4.01672 2.72998 3.65024C2.74484 3.43845 2.83949 3.24017 2.99482 3.09542C3.15015 2.95068 3.3546 2.87023 3.56692 2.87033H6.53227C6.63629 2.87023 6.73664 2.90879 6.81382 2.97853C6.891 3.04827 6.9395 3.14421 6.9499 3.24771C6.96919 3.44059 6.9868 3.59406 7.00357 3.71062C7.17023 4.87372 7.51178 6.00494 8.01662 7.06593C8.09629 7.23365 8.0443 7.43408 7.89334 7.54142L6.08361 8.83457C7.19013 11.4129 9.24482 13.4675 11.8231 14.5741L13.1146 12.7677C13.1674 12.6939 13.2444 12.641 13.3322 12.6181C13.42 12.5953 13.513 12.604 13.5951 12.6427C14.656 13.1466 15.7869 13.4873 16.9496 13.6533C17.0661 13.67 17.2196 13.6885 17.4108 13.7069C17.5142 13.7175 17.6099 13.7661 17.6795 13.8433C17.749 13.9204 17.7875 14.0207 17.7873 14.1246H17.7865Z" fill="white"/>
</g>
<defs>
<clipPath id="clip0_5_105">
<rect width="20.1268" height="20.1268" fill="white" transform="translate(0.175537 0.354492)"/>
</clipPath>
</defs>
</svg>
