<svg width="92" height="98" viewBox="0 0 92 98" fill="none" xmlns="http://www.w3.org/2000/svg">
<path d="M44.0335 2.60817C44.4377 0.427562 47.5623 0.427564 47.9665 2.60818L52.0566 24.672C52.3458 26.2319 54.2489 26.8503 55.3997 25.7583L71.6775 10.3123C73.2863 8.7858 75.8141 10.6223 74.8594 12.6241L65.1995 32.8782C64.5166 34.3101 65.6928 35.9291 67.2657 35.7221L89.5136 32.7939C91.7124 32.5045 92.6779 35.4761 90.7289 36.5344L71.0089 47.2424C69.6147 47.9994 69.6147 50.0006 71.0089 50.7576L90.7289 61.4656C92.6779 62.5239 91.7124 65.4955 89.5136 65.2061L67.2657 62.2779C65.6928 62.0709 64.5166 63.6899 65.1995 65.1218L74.8594 85.3759C75.8141 87.3777 73.2863 89.2142 71.6775 87.6877L55.3997 72.2417C54.2489 71.1497 52.3458 71.7681 52.0566 73.328L47.9665 95.3918C47.5623 97.5724 44.4377 97.5724 44.0335 95.3918L39.9434 73.328C39.6542 71.7681 37.7511 71.1497 36.6003 72.2417L20.3225 87.6877C18.7137 89.2142 16.1859 87.3777 17.1406 85.3759L26.8005 65.1218C27.4834 63.6899 26.3072 62.0709 24.7343 62.2779L2.48643 65.2061C0.287634 65.4955 -0.677897 62.5239 1.27107 61.4656L20.9911 50.7576C22.3853 50.0006 22.3853 47.9994 20.9911 47.2424L1.27107 36.5344C-0.677901 35.4761 0.287631 32.5045 2.48643 32.7939L24.7343 35.7221C26.3072 35.9291 27.4834 34.3101 26.8005 32.8782L17.1406 12.6241C16.1859 10.6223 18.7137 8.7858 20.3225 10.3123L36.6003 25.7583C37.7511 26.8503 39.6542 26.2319 39.9434 24.672L44.0335 2.60817Z" fill="#FFACEE"/>
</svg>
