<svg width="13" height="15" viewBox="0 0 13 15" fill="none" xmlns="http://www.w3.org/2000/svg">
<path d="M6.82734 0C7.6223 0 8.46403 0 9.25899 0C9.30576 0.931314 9.63309 1.90919 10.3345 2.60768C11.036 3.30616 12.018 3.63212 13 3.72526V6.2398C12.1115 6.19324 11.1763 6.00697 10.3813 5.63445C10.0072 5.49475 9.67986 5.26192 9.35252 5.07566C9.35252 6.89172 9.35252 8.70778 9.35252 10.5238C9.30576 11.4086 9.02518 12.2468 8.51079 12.9918C7.71583 14.2025 6.26619 14.9476 4.81655 14.9942C3.92806 15.0407 3.03957 14.8079 2.29137 14.3422C1.02878 13.504 0.140288 12.1536 0 10.7101C0 10.3841 0 10.1048 0 9.7788C0.0935252 8.61465 0.701439 7.45051 1.58993 6.70546C2.61871 5.82071 4.06835 5.40162 5.42446 5.63445C5.42446 6.56576 5.3777 7.45051 5.3777 8.38182C4.76978 8.19556 4.02158 8.24213 3.50719 8.61465C3.13309 8.84748 2.80576 9.26657 2.66547 9.68566C2.52518 10.0116 2.57194 10.3376 2.57194 10.6635C2.71223 11.688 3.69425 12.5262 4.76978 12.433C5.47122 12.433 6.1259 12.0139 6.5 11.4552C6.64029 11.2689 6.73381 11.0361 6.73381 10.8032C6.78058 9.68566 6.78058 8.56809 6.78058 7.49708C6.82734 4.98253 6.82734 2.51455 6.82734 0Z" fill="white"/>
</svg>
