<svg width="21" height="21" viewBox="0 0 21 21" fill="none" xmlns="http://www.w3.org/2000/svg">
<g clip-path="url(#clip0_5_110)">
<path d="M19.3196 5.09772C18.6794 5.38092 18.0004 5.5669 17.3052 5.64953C18.038 5.2113 18.5864 4.5216 18.8483 3.70897C18.1606 4.11822 17.4067 4.40502 16.6209 4.56017C16.0931 3.99543 15.3935 3.62089 14.6309 3.49478C13.8682 3.36867 13.0853 3.49805 12.4037 3.86282C11.7222 4.22758 11.1803 4.80729 10.8622 5.51182C10.5442 6.21635 10.4678 7.00623 10.6449 7.75865C9.25042 7.68876 7.88618 7.32636 6.64079 6.695C5.39541 6.06364 4.29673 5.17743 3.41607 4.0939C3.10435 4.62931 2.94054 5.23796 2.94141 5.85751C2.94141 7.0735 3.56031 8.14777 4.50124 8.77673C3.94441 8.7592 3.39983 8.60882 2.9129 8.33813V8.38174C2.91307 9.19159 3.19331 9.97647 3.7061 10.6033C4.2189 11.2301 4.93269 11.6603 5.72646 11.8209C5.20955 11.961 4.66754 11.9816 4.14147 11.8813C4.36527 12.5784 4.80147 13.188 5.38899 13.6249C5.97652 14.0617 6.68594 14.3039 7.41795 14.3175C6.69043 14.8888 5.85743 15.3112 4.96657 15.5604C4.07571 15.8097 3.14447 15.8809 2.22607 15.77C3.82926 16.801 5.69551 17.3483 7.60161 17.3466C14.0531 17.3466 17.5811 12.0021 17.5811 7.36702C17.5811 7.21607 17.5769 7.06344 17.5702 6.91416C18.257 6.41784 18.8496 5.80301 19.3204 5.09856L19.3196 5.09772Z" fill="white"/>
</g>
<defs>
<clipPath id="clip0_5_110">
<rect width="20.1268" height="20.1268" fill="white" transform="translate(0.734375 0.354492)"/>
</clipPath>
</defs>
</svg>
